<?xml version="1.0"?>
<svg xmlns:rdf="http://www.w3.org/1999/02/22-rdf-syntax-ns#" xmlns="http://www.w3.org/2000/svg" xmlns:cc="http://web.resource.org/cc/" xmlns:xlink="http://www.w3.org/1999/xlink" xmlns:dc="http://purl.org/dc/elements/1.1/" xmlns:svg="http://www.w3.org/2000/svg" id="svg16622" viewBox="0 0 639.87 530.82" version="1.0">
  <defs id="defs16624">
    <radialGradient id="radialGradient19465" xlink:href="#linearGradient4790" gradientUnits="userSpaceOnUse" cy="-793.62" cx="249.18" gradientTransform="matrix(-1.1031 .14554 -.12636 -.95776 650.9 -416.8)" r="106.03"/>
    <filter id="filter18360" y="-.19268" width="1.2965" x="-.14826" height="1.3854">
      <feGaussianBlur id="feGaussianBlur18362" stdDeviation="2.7184042"/>
    </filter>
    <radialGradient id="radialGradient19463" spreadMethod="reflect" gradientUnits="userSpaceOnUse" cy="-226.6" cx="314.09" gradientTransform="matrix(1 0 0 1.0468 103.04 -132.84)" r="106.03">
      <stop id="stop4710" stop-color="#fffd0a" stop-opacity="0" offset="0"/>
      <stop id="stop4706" stop-opacity=".071429" offset="1"/>
    </radialGradient>
    <linearGradient id="linearGradient4790">
      <stop id="stop4792" stop-color="#e2e100" stop-opacity="0" offset="0"/>
      <stop id="stop4794" stop-color="#c3e400" stop-opacity=".98039" offset="1"/>
    </linearGradient>
    <radialGradient id="radialGradient19461" xlink:href="#linearGradient4790" gradientUnits="userSpaceOnUse" cy="-809.47" cx="213.48" gradientTransform="matrix(4.7197 -1.2489 .80724 3.0507 366.64 3020.7)" r="106.03"/>
    <filter id="filter4669">
      <feGaussianBlur id="feGaussianBlur4671" stdDeviation="2.267713"/>
    </filter>
    <clipPath id="clipPath4694" clipPathUnits="userSpaceOnUse">
      <path id="path4696" fill-opacity=".98039" fill="#e2e100" d="m-389.63-702.16c-2.37 1.74 6.47 87.51 7.87 89.44 1.39 1.9 7.95 1.37 10.6 0.47 2.45-0.84 47.26-79.77 46.04-82.44-7.25-10.69-27.15-10.42-32.39-11.25-10.51-0.39-22.66-1.44-32.12 3.78zm-56.6 34.95c1.95 3.28 55.69 55.96 56.73 56.92 0.95 0.89 4.96 0.08 5.75-2.09 0.73-2.02-10.93-87.52-11.01-88.32-18.82-0.4-45.36 13.73-51.47 33.49zm123.53-24.97c-1.74-0.41-36.91 63.61-44.93 81.68-0.45 3.73 2.54 5.12 4.66 4.28 1.89-0.75 72.55-55.95 72.89-57.03-0.67-11.69-22.66-29.56-32.62-28.93zm-125.35 27.03c-19.88 10.96-34.92 53.03-29.78 75.01 1.92 3.07 78.92-9.52 81.57-10.7 2.59-1.16 6.07-6.16 5.38-8.6-0.71-2.49-56.26-55.3-57.17-55.71zm161.49 4.07c-2.21-1.92-75.48 55.94-75.76 56.68-0.26 0.7 0.06 2.53 1.81 3.15 2.57 0.9 88.47-25.52 88.76-26.26 4.34-11.04-6.54-33.17-14.81-33.57zm13.77 37.09c-1.04-0.56-86.83 23.11-88.78 24.65-1.07 0.84-2.28 5.06-1.28 6.9 1.12 2.06 76.46 41.22 77.54 40.59 9.77-5.71 16.85-20.03 17.52-25.31 0.66-5.14 1-10.38 1-15.72-0.8-9.24 1.12-24.53-6-31.11zm-205.84 38.99c-0.48 19.62 7.11 45.67 22.71 58.57 0.98-0.5 59.11-55.25 64.48-63.23 1.44-2.14-3.8-8.18-4.72-8.28-0.92-0.09-81.83 9.73-82.47 12.94zm115.34-4.41c-0.28 0-0.61 0.01-0.97 0.03-2.9 0.68-6.98 1.22-7.46 4.22-0.51 3.16 39.71 83.64 41.84 83.28 18.84-6.07 44.83-26.59 42.2-48.46-0.26-0.8-61.16-31.69-73.08-38.63-0.11 0.19-0.52-0.42-2.53-0.44zm-25.26 0.76c-1.55 0.09-63.83 63.84-64.33 65.11 5.26 16.75 33.37 36.67 52.09 33.1 0.63-4.65 17.24-94.48 15.57-96.03-1.61-1.49-1.78-2.28-3.33-2.18zm14.42 3.18c-1.63-1.36-5.54-2.06-7.31 0.03-1.84 2.16-17.3 95.19-14.63 96.85 16.88 8.46 48.79 4.09 61.56-10.66-0.33 0.13-38.06-84.92-39.62-86.22z"/>
    </clipPath>
    <filter id="filter18215">
      <feGaussianBlur id="feGaussianBlur18217" stdDeviation="3.050661"/>
    </filter>
    <filter id="filter4784">
      <feGaussianBlur id="feGaussianBlur4786" stdDeviation="4.0599257"/>
    </filter>
    <clipPath id="clipPath39732" clipPathUnits="userSpaceOnUse">
      <path id="path39734" opacity=".3876" fill-opacity=".97255" d="m-290.46 546.52c-0.21 3.22-0.7 6.98-0.67 10.23 0.04 3.23-0.14 6.8 0.14 10.03 0.28 3.21 0.96 5.71 1.48 8.91 0.51 3.19 1.13 6.6 1.88 9.76 0.74 3.14 1.96 5.87 2.93 8.96 0.96 3.08 1.61 5.88 2.8 8.9 1.18 3 2.63 6.92 4.03 9.84 1.4 2.91 2.61 5.02 4.22 7.83 1.6 2.8 3.8 5.81 5.61 8.5 1.8 2.68 3.64 5.56 5.65 8.11 2 2.53 3.9 4.97 6.09 7.36 2.19 2.37 4.41 4.48 6.78 6.69 2.36 2.2 5.17 4.79 7.72 6.82 2.51 2.01 4.41 3.96 7.1 5.78 2.66 1.8 5.29 2.81 8.13 4.43 2.78 1.59 6.68 3.87 9.63 5.27 2.9 1.37 4.84 1.88 7.9 3.05 2.98 1.14 6.22 2.15 9.36 3.09 3.06 0.92 6.26 2.07 9.46 2.79 3.12 0.7 6.92 1.14 10.17 1.64 3.14 0.49 5.86 1.37 9.13 1.66 3.18 0.28 5.72 0.56 9.01 0.65 3.18 0.09 7.1 0.04 10.39-0.07 3.23-0.1 6.92-0.51 10.35-0.98 3.22-0.45 6.12-1.32 9.47-2.09 3.19-0.73 7.05-0.76 10.32-1.78 3.13-0.98 5.61-3.04 8.79-4.29 3.06-1.21 5.91-2.47 8.99-3.92 2.98-1.41 6.509-3.2 9.476-4.84 2.894-1.6 5.571-2.87 8.423-4.69 2.793-1.79 5.902-4.01 8.631-6 2.68-1.96 4.787-4.07 7.383-6.23 2.554-2.13 5.589-4.43 8.042-6.75 2.416-2.28 4.687-4.11 6.985-6.58 2.266-2.43 4.308-5.37 6.44-7.99 2.101-2.57 4.709-4.75 6.663-7.5 1.924-2.71 3.229-5.19 4.992-8.07 1.735-2.83 2.899-6.24 4.462-9.24 1.536-2.94 3.182-6.21 4.536-9.31 1.328-3.04 2.698-5.91 3.836-9.1 1.114-3.12 2.369-6.51 3.287-9.77 0.896-3.18 1.59-6.36 2.287-9.68 0.679-3.23 0.537-6.47 1.014-9.83 0.464-3.27 1.633-6.7 1.896-10.09 0.255-3.29 0.682-6.42 0.737-9.82 0.053-3.35-0.549-6.77-0.658-9.99-0.113-3.35-0.475-6.62-0.755-9.83-0.291-3.34-0.261-6.55-0.725-9.74-0.483-3.31-0.809-7.13-1.47-10.29-0.686-3.27-2.421-5.44-3.289-8.55-0.899-3.23-0.899-7.03-1.983-10.07-1.121-3.15-2.51-6.45-3.816-9.41-1.347-3.06-2.915-5.33-4.446-8.18-1.574-2.94-3.463-5.86-5.217-8.59-1.795-2.8-3.454-6.3-5.423-8.89-2.009-2.64-4.135-5.13-6.309-7.55-2.211-2.47-4.448-3.85-6.812-6.1-2.396-2.28-4.5-5.06-7.036-7.12-2.563-2.08-5.2-3.9-7.888-5.77-2.712-1.88-5.657-3.94-8.477-5.6-2.843-1.68-5.587-2.68-8.52-4.14-2.956-1.47-6.182-3.08-9.209-4.33-3.05-1.26-5.917-2.62-9.017-3.67-3.13-1.05-6.65-1.91-9.82-2.75-3.19-0.85-6.21-1.37-9.41-2-3.25-0.64-6.59-1.14-9.83-1.56-3.28-0.44-6.43-0.56-9.68-0.78-3.32-0.21-6.82-0.4-10.07-0.4-3.26 0-6.67-0.21-9.9 0.15-3.22 0.35-6.77 1.34-9.96 2.03-3.16 0.68-5.92 1.18-9.04 2.17-3.08 0.98-5.51 2.47-8.53 3.73-2.98 1.25-6.16 2.39-9.07 3.89-2.87 1.48-6.08 3.18-8.87 4.89-2.75 1.69-5.35 3.04-8.02 4.93-2.64 1.87-4.9 3.66-7.45 5.72-2.51 2.03-4.87 5.02-7.29 7.22-2.39 2.18-5.51 4.55-7.79 6.88-2.27 2.32-4.02 3.63-6.18 6.07-2.14 2.44-4.67 5.4-6.69 7.95-2.02 2.54-3.69 5.08-5.58 7.73s-4.05 5.53-5.8 8.27c-1.76 2.74-3.77 5.34-5.37 8.15-1.62 2.84-2.57 5.99-4.03 8.89-1.47 2.91-2.99 5.51-4.29 8.47-1.31 3-2.88 6.7-4.01 9.72-1.14 3.07-1.33 5.42-2.28 8.51-0.96 3.13-2.47 6.52-3.22 9.65-0.76 3.19-1.15 5.9-1.67 9.08-0.54 3.24-1.4 7.13-1.68 10.34-0.28 3.27 0.54 6.35 0.54 9.56l0.17-0.01"/>
    </clipPath>
    <filter id="filter44910" y="-.12747" width="1.0974" x="-.048686" height="1.2549">
      <feGaussianBlur id="feGaussianBlur44912" stdDeviation="27.725101"/>
    </filter>
    <linearGradient id="linearGradient19457" y2="2332.9" gradientUnits="userSpaceOnUse" y1="2596.2" x2="-738.07" x1="-964.89">
      <stop id="stop39770" stop-color="#4c432c" offset="0"/>
      <stop id="stop39772" stop-color="#423543" stop-opacity="0" offset="1"/>
    </linearGradient>
    <radialGradient id="radialGradient19455" gradientUnits="userSpaceOnUse" cy="320.43" cx="485.29" gradientTransform="matrix(1 0 0 .34884 0 208.65)" r="68.869">
      <stop id="stop39798" stop-color="#ced534" offset="0"/>
      <stop id="stop39800" stop-color="#82871c" stop-opacity="0" offset="1"/>
    </radialGradient>
  </defs>
  <g id="layer1" transform="translate(-100.86 -149.79)">
    <g id="g14293" transform="matrix(3.4527 0 0 3.4527 -1208.5 -964.74)">
      <path id="path39794" opacity=".74806" transform="matrix(.94186 0 0 1.5333 37.251 -51.9)" fill="url(#radialGradient19455)" d="m554.16 320.43a68.869 24.024 0 1 1 -137.74 0 68.869 24.024 0 1 1 137.74 0z"/>
      <path id="path39764" opacity=".51876" d="m-585.24 2485.7c16.4 124.9-175.96 197.4-543.66 191-339.2-6-687.4-102.8-687.4-229s138.4-131.5 487.2-158.2c134-10.2 730.2 92.3 743.86 196.2z" transform="matrix(.12092 -.014488 .017344 .17860 582.38 -31.527)" filter="url(#filter44910)" fill="url(#linearGradient19457)"/>
      <path id="path20442" fill-opacity=".98039" fill="#c3e300" d="m385.65 399.18c-1.53 12.05 2.27 24.16 7.64 34.64 7.31 12.71 18.53 23.15 32.06 27.73 12.43 4.39 26.05 6.43 38.94 2.99 7.54-1.3 18.73-6.65 24.84-11.6 28.42-24.73 31.42-45.91 26.2-76.89-2.71-11.95-12.3-26.67-23.7-35.53-11.41-8.85-28.57-15.93-45.65-14.54-10.66 1.87-20.92 6.67-29.42 13.71-6.08 5.61-12.38 11.09-16.88 18.3-4.6 6.25-8.08 13.44-10.62 20.86-1.94 6.53-4.5 13.69-3.38 20.5"/>
      <path id="path20444" fill="#f8f8f8" d="m384.48 399.05c-0.1 1.54-0.34 3.33-0.32 4.88 0.02 1.54-0.07 3.25 0.07 4.79 0.13 1.54 0.46 2.73 0.7 4.26 0.25 1.52 0.55 3.15 0.9 4.66 0.35 1.5 0.94 2.8 1.4 4.28 0.46 1.47 0.77 2.81 1.34 4.25 0.56 1.44 1.25 3.31 1.92 4.7s1.25 2.4 2.02 3.74 1.81 2.78 2.68 4.07c0.86 1.27 1.74 2.65 2.7 3.87 0.95 1.21 1.86 2.37 2.91 3.51 1.04 1.14 2.1 2.14 3.24 3.2 1.12 1.05 2.47 2.29 3.68 3.26 1.2 0.96 2.11 1.89 3.4 2.76 1.27 0.86 2.52 1.34 3.88 2.11 1.33 0.76 3.19 1.85 4.6 2.52 1.38 0.65 2.31 0.9 3.77 1.46 1.42 0.54 2.97 1.02 4.47 1.47 1.46 0.44 2.99 0.99 4.52 1.33 1.49 0.34 3.31 0.55 4.86 0.79 1.5 0.23 2.8 0.65 4.36 0.79 1.52 0.14 2.73 0.27 4.3 0.31 1.52 0.04 3.39 0.02 4.96-0.03 1.55-0.05 3.31-0.25 4.95-0.47 1.54-0.21 2.92-0.63 4.52-1 1.53-0.35 3.37-0.36 4.93-0.85 1.5-0.47 2.68-1.45 4.2-2.05 1.46-0.57 2.83-1.17 4.29-1.87 1.43-0.67 3.11-1.53 4.53-2.31 1.38-0.77 2.66-1.37 4.02-2.24 1.34-0.86 2.82-1.92 4.13-2.87 1.28-0.93 2.28-1.94 3.52-2.97 1.22-1.02 2.67-2.12 3.85-3.23 1.15-1.09 2.23-1.96 3.33-3.14 1.08-1.16 2.06-2.57 3.08-3.81 1-1.24 2.25-2.28 3.18-3.59 0.92-1.29 1.54-2.48 2.38-3.85 0.83-1.35 1.39-2.99 2.14-4.42 0.73-1.4 1.52-2.97 2.16-4.44 0.64-1.46 1.29-2.83 1.83-4.35 0.54-1.49 1.14-3.11 1.57-4.67 0.43-1.52 0.76-3.04 1.1-4.62 0.32-1.55 0.25-3.09 0.48-4.7 0.22-1.56 0.78-3.2 0.91-4.82 0.12-1.57 0.32-3.06 0.35-4.69 0.02-1.6-0.26-3.23-0.31-4.77-0.06-1.6-0.23-3.16-0.37-4.69-0.13-1.6-0.12-3.13-0.34-4.66-0.23-1.58-0.39-3.4-0.7-4.91-0.33-1.56-1.16-2.6-1.58-4.09-0.42-1.54-0.42-3.35-0.94-4.81-0.54-1.5-1.2-3.08-1.83-4.49-0.64-1.46-1.39-2.54-2.12-3.91-0.75-1.4-1.65-2.8-2.49-4.1-0.86-1.34-1.65-3.01-2.59-4.25-0.96-1.26-1.98-2.45-3.01-3.61-1.06-1.17-2.13-1.83-3.26-2.91-1.14-1.09-2.15-2.41-3.36-3.4-1.22-0.99-2.48-1.86-3.77-2.75-1.29-0.9-2.7-1.89-4.05-2.68-1.35-0.8-2.66-1.28-4.07-1.98s-2.95-1.47-4.39-2.06c-1.46-0.61-2.83-1.26-4.31-1.76-1.5-0.5-3.18-0.91-4.69-1.31-1.53-0.41-2.97-0.66-4.5-0.96-1.55-0.3-3.15-0.54-4.69-0.74-1.57-0.21-3.07-0.27-4.63-0.37-1.58-0.11-3.25-0.2-4.81-0.2-1.55 0-3.18-0.09-4.72 0.08s-3.24 0.64-4.76 0.97c-1.51 0.32-2.83 0.56-4.32 1.03-1.47 0.47-2.63 1.18-4.08 1.79-1.42 0.59-2.94 1.13-4.33 1.85-1.37 0.71-2.9 1.52-4.23 2.34-1.32 0.81-2.56 1.45-3.84 2.35-1.25 0.9-2.34 1.75-3.55 2.73-1.2 0.97-2.33 2.4-3.48 3.45s-2.64 2.18-3.73 3.29c-1.08 1.11-1.92 1.73-2.95 2.9-1.02 1.16-2.23 2.58-3.19 3.8-0.97 1.21-1.76 2.42-2.67 3.69-0.9 1.26-1.93 2.64-2.77 3.95s-1.8 2.55-2.57 3.89c-0.77 1.36-1.22 2.86-1.92 4.25s-1.43 2.63-2.05 4.05c-0.63 1.43-1.37 3.19-1.91 4.64-0.55 1.46-0.64 2.59-1.09 4.06-0.46 1.5-1.18 3.11-1.54 4.61-0.36 1.53-0.55 2.82-0.8 4.34-0.25 1.55-0.67 3.4-0.8 4.94-0.14 1.56 0.26 3.03 0.26 4.57l0.08-0.01"/>
      <path id="use20446" d="m-289.76 559.01c-3.06-0.02-2.58-2.84-2.36-5.9 0.21-3.05 2.18-6.86 5.24-6.61 3.05 0.26 4.45 2.98 4.23 6.04-0.21 3.06-3.74 3.53-6.8 3.52 0 0-2.43-0.1-2.43-0.1m4.42 15.37c-3.02 0.56-5.73-2.89-5.89-5.95-0.17-3.06 2.77-5.18 5.83-5.16 3.07 0.01 7.45 2.41 7.61 5.48 0.17 3.06-3.92 4.58-6.94 5.14 0 0 1.29-0.65 1.29-0.65m0.63 14.14c-2.97 0.76-5.5-1.2-6.03-4.22s-0.03-5.31 2.98-5.87c3.02-0.56 7.83 0.54 8.35 3.56 0.53 3.03-1.57 6.05-4.54 6.82l0.58 1.19m4.4 11.63c-2.93 0.91-7.6-2.48-8.58-5.38-0.98-2.91 3.01-3.51 5.92-4.49 2.9-0.98 4.16 0.63 5.13 3.54 0.98 2.91 1.57 5.7-1.36 6.61 0 0-3.21-0.79-3.21-0.79m6.31 13.25c-2.8 1.25-7.61-1.5-8.72-4.35-1.12-2.86-0.31-5.07 2.57-6.11 2.89-1.04 6.07 0.31 7.18 3.17 1.12 2.86 0.35 4.42-2.45 5.67l0.58 1.56m5.65 12.96c-2.55 1.69-6.06-0.87-7.57-3.54s1.1-5.94 3.84-7.31c2.75-1.36 5.29-2.1 6.8 0.57s0.23 7.42-2.33 9.11l0.02-0.1m8.44 11.05c-2.45 1.84-7.28 0.85-8.99-1.7-1.7-2.55-0.96-6.78 1.57-8.51s4.39 0.26 6.1 2.81c1.7 2.54 2.12 5.98-0.33 7.82 0 0-1.45 0.16-1.45 0.16m11.35 9.34c-2.22 2.11-4.9 2.37-6.87 0.02-1.96-2.35-1.72-6.65 0.68-8.56s4.67-1.01 6.63 1.34c1.97 2.35 1.99 4.81-0.24 6.92l-0.82-0.05m10.87 10.17c-2.02 2.3-5.5 2.86-7.76 0.79s-3.6-6.02-1.43-8.19 6.93-1.71 9.19 0.36c2.26 2.08-0.1 4.67-2.12 6.97l2.05 1.24m10.24 7.75c-1.66 2.58-6.75 3.41-9.11 1.45s-2.7-5.88-0.74-8.24 6.09-1.97 8.45-0.01 2.48 5.6 0.82 8.18l0.26-1.25m11.87 2.77c-1.47 2.69-5.9 7.75-8.57 6.23-2.66-1.52-1.92-4.18-0.49-6.89s3.3-5.29 5.97-3.77c2.66 1.52 5.49 6.03 4.02 8.73l-0.95-0.77m12.17 6.55c-1.05 2.88-3.85 3.71-6.71 2.61-2.87-1.09-4.52-5.8-3.14-8.54 1.38-2.73 3.65-0.78 6.52 0.31s5.3 2.16 4.24 5.05-0.06-0.08-0.06-0.08m12.96 4.84c-0.92 2.92-3.42 4.26-6.35 3.35s-5.6-5.01-4.62-7.91c0.97-2.91 2.28-3.42 5.21-2.51s4.67 3.57 3.75 6.49l1.57-0.86m12.46 1.86c-0.45 3.03-2.94 5.75-5.96 5.27-3.03-0.49-6.43-0.73-5.56-3.67s5.03-9.26 8.06-8.77c3.02 0.48 4.23 5.37 3.78 8.41l1.49 0.3m12 1.64c-0.27 3.06-3.3 5.4-6.31 4.81s-4.65-3.73-4.09-6.75c0.55-3.01 4.18-4.79 7.19-4.2s3.9 3.5 3.63 6.55l-0.75-0.69m16.06 2.18c0.06 3.06-4.17 4.12-7.24 4.1-3.06-0.02-5.78-2.59-5.56-5.65 0.21-3.06 2.74-5.77 5.81-5.75s5.09 2.14 5.16 5.2l-0.62 3.31m14.61-3.52c0.52 3.02-0.24 4.75-3.28 5.11-3.05 0.37-7.95-2.21-8.11-5.27-0.16-3.07 1.08-4.56 4.12-4.93 3.05-0.37 7.32 1.77 7.83 4.79l-0.99-0.04m14.9-0.26c0.45 3.04-0.16 1.46-3.14 2.19-2.98 0.72-7.52 1.61-8.18-1.39-0.67-2.99 1.82-7.3 4.8-8.03 2.98-0.72 4.33 1.97 4.79 5l-0.49 0.15m13.62-5.3c1.22 2.82 0.68 7.17-2.03 8.61-2.7 1.44-8.72 1.05-9.34-1.95-0.62-3.01 1.13-6.95 3.84-8.39 2.71-1.45 6.56-0.89 7.78 1.92l2.14 3.03m8.07-7.88c1.36 2.75 1.83 5.56-0.96 6.83s-7.49-0.66-8.66-3.49c-1.18-2.84 1.36-5.21 4.15-6.48s6.82-0.59 8.17 2.16l-0.23 0.51m10.706-5.83c1.484 2.68-0.824 4.13-3.528 5.57-2.703 1.45-2.446 1.72-3.882-0.99s0.055-6.49 2.758-7.94c2.704-1.45 2.272 0.72 3.756 3.4l0.28-0.64m13.036-9.09c1.886 2.42 1.385 8.07-1.107 9.85-2.492 1.79-6.318-0.59-7.904-3.22-1.586-2.62-2.658-5.41-0.166-7.2s5.414-0.47 7.3 1.95l1.864 1.06m10.266-10.8c1.934 2.38-1.338 7.02-3.65 9.04-2.312 2.01-3.395 3.12-5.389 0.79s-0.824-7.23 1.488-9.25c2.311-2.01 6.304-4.54 8.238-2.16l-1.427 3.47m10.531-9.31c2.186 2.15 0.528 4.93-1.74 7-2.267 2.06-4.477 2.66-6.442 0.31s-2.535-5.81-0.268-7.87c2.267-2.07 6.496-2.46 8.681-0.31l1.158 1.32m7.591-11.3c2.217 2.12 3.125 5.43 1.239 7.85-1.887 2.42-7.176 3.87-9.488 1.86-2.312-2.02-1.776-6.89 0.11-9.31 1.887-2.41 5.745-2.96 7.963-0.84 0 0 0.397 0.69 0.397 0.69m7.338-12.7c2.635 1.56 1.782 7.41 0.07 9.95-1.711 2.55-4.968 2.5-7.221 0.42s-3.282-6.25-1.571-8.79c1.712-2.55 7.645-3.21 10.28-1.64l-1.566 1.26m3.999-12.22c2.734 1.39 5.989 4.51 4.744 7.31-1.245 2.81-4.3 5.59-6.936 4.02-2.636-1.56-4.237-4.83-2.992-7.63s5.209-3.37 7.943-1.98-0.287-0.41-0.287-0.41m5.68-13.54c2.805 1.24 3.137 5.98 1.841 8.76-1.297 2.78-3.021 0.42-5.755-0.97-2.734-1.38-4.999-1.75-3.702-4.53 1.296-2.78 4.637-6.29 7.441-5.05l0.098 1.8m4.905-12.43c2.936 0.88 4.466 4.33 3.439 7.22-1.027 2.88-4.244 4.36-7.071 3.17-2.826-1.19-4.456-4.37-3.429-7.26s2.67-3.8 5.606-2.91l1.297-0.79m3.341-13.13c3.041 0.4 6.965 3.45 6.31 6.45-0.654 2.99-6.536 3.96-9.508 3.2-2.972-0.75-3.411-0.65-2.757-3.65 0.655-2.99 3.261-6.52 6.302-6.12 0 0 3.617-0.8 3.617-0.8m-2.454-13.28c3.002 0.63 7.044 5.25 6.543 8.27-0.5 3.03-5.805 3.04-8.86 2.78-3.056-0.26-5.425-5.28-4.924-8.31 0.501-3.02 3.935-3.12 6.937-2.49l0.047-2.33m1.544-10.71c3.067-0.02 5.44 2.62 5.162 5.67-0.278 3.06-1.984 6.17-5.012 5.69-3.028-0.49-5.56-2.88-5.282-5.93 0.278-3.06 2.517-5.23 5.584-5.25l0.19-0.48m-0.923-12.87c3.058-0.23 8.392 3 8.587 6.06s-4.911 4.26-7.968 4.51c-3.057 0.24-5.286-1.52-5.48-4.59-0.195-3.06 1.656-6.59 4.714-6.82l1.205 0.48m-2.014-14.29c3.047-0.34 5.693 3.96 5.878 7.02s-1.115 4.93-4.169 5.21c-3.055 0.28-6.951-3.12-7.136-6.18s2.4-6.23 5.448-6.57l1.173 1.38m-2.813-12.97c2.899-1 5.045 1.15 5.465 4.19s-2.271 5.68-5.313 6.07-4.911-0.03-5.331-3.07c-0.421-3.04 1.202-6.65 4.101-7.64l-3.117-1.58m-1.822-11.9c3.026-0.49 6.639 1.94 7.362 4.92 0.722 2.98 0.352 3.36-2.436 4.64-2.787 1.28-6.587 3.47-7.31 0.49-0.722-2.98 0.485-8.67 3.511-9.16 0 0 0.305-0.05 0.305-0.05m-4.737-13.58c2.76-1.34 5.425 0.39 6.526 3.25 1.102 2.86 0.476 5.7-2.456 6.6-2.931 0.9-6.049 1.2-7.15-1.66-1.102-2.86-0.743-6.86 2.017-8.2 0 0-0.505 0.86-0.505 0.86m-5.312-12.47c2.59-1.64 7.363-0.35 8.862 2.33s-2.165 5.51-4.848 7c-2.683 1.48-4.58 2.12-6.079-0.56-1.499-2.67 0.383-5.77 2.973-7.41l-0.703-0.41m-7.039-12.14c2.57-1.67 6.248-0.93 7.765 1.73 1.516 2.67-0.566 3.92-3.156 5.57-2.589 1.64-4.508 2.97-6.025 0.31-1.516-2.67-0.641-6.86 1.93-8.54 0 0-0.79 0.99-0.79 0.99m-8.355-10.64c2.003-2.32 5.714 1.46 7.727 3.78 2.013 2.31 1.805 2.61-0.587 4.53-2.393 1.92-4.213 2.27-6.226-0.05-2.012-2.31-2.079-5.02-0.076-7.34l-0.778-1.58m-10.424-8.31c2.114-2.23 5.244-2.16 7.393 0.03 2.15 2.19 1.247 5.51-0.704 7.87-1.951 2.37-4.312 1.3-6.462-0.89-2.149-2.19-1.971-5.24 0.143-7.46l-1.477-1.45m-9.16-6.55c1.738-2.53 4.977-3.98 7.487-2.21 2.51 1.76 5.306 3.27 3.413 5.68-1.892 2.41-7.513 5.94-10.023 4.18s-2.381-6.11-0.644-8.63l-2.971-0.27m-9.067-5.84c1.264-2.79 4.243-4.17 6.939-2.71s4.26 4.42 2.523 6.95c-1.738 2.53-3.992 5.46-6.688 4-2.695-1.46-4.795-5.93-3.531-8.72l0.307 0.82m-12.147-6.7c1.203-2.82 5.096-3.9 7.849-2.55 2.754 1.35 2.348 3.5 1.038 6.27-1.311 2.77-4.321 6.33-7.075 4.98-2.756-1.35-4.196-3.5-2.996-6.32l0.718-2.75m-11.588-4.9c0.83-2.95 3.98-4.69 6.86-3.63 2.88 1.05 6.694 6.08 5.491 8.9-1.201 2.82-6.981 3.88-9.861 2.82-2.88-1.05-4-3.92-3.17-6.87l0.25 0.22m-13.19-1.6c0.59-3.01 4.56-5.85 7.53-5.12 2.98 0.73 3.39 2.42 2.61 5.38-0.79 2.97-2.93 3.44-5.9 2.71-2.98-0.73-3.36 0.26-2.77-2.75l-1.86-2.67m-13.91-0.76c0.24-3.06 3.66-6.14 6.69-5.7 3.04 0.43 5.59 4.43 5.06 7.45s-1.86 4.54-4.9 4.11-6.45-0.47-6.2-3.53l-0.42-2.96m-13.75-0.77c0.07-3.06 4.04-5.71 7.1-5.54s4.19 2.93 4 5.99-3.33 6.71-6.39 6.54c-3.07-0.17-4.02-3.48-3.95-6.54l-0.59-0.4m-13.46 0.38c-0.4-3.04 3.94-5.74 7-5.79 3.07-0.04 4.36 2.09 4.28 5.15-0.07 3.07-3.56 5.63-6.63 5.67-3.06 0.04-4.12-2.13-4.52-5.17l1.26-0.14m-14.19 2.96c-0.64-3 0.77-6.68 3.76-7.37 2.98-0.68 5.78 4.19 6.4 7.19 0.62 3.01-0.52 4.27-3.5 4.95-2.99 0.69-8.4-1.52-9.04-4.52 0 0 2.85-0.31 2.85-0.31m-13.53 4.98c-1.15-2.84 1.96-7.73 4.76-8.99 2.79-1.27 4.6 2.37 5.45 5.31 0.86 2.95 0.82 5.27-1.97 6.54-2.8 1.26-4.98-0.37-6.13-3.21l-2.6-1.17m-12.57 7.12c-1.43-2.71-0.44-5.05 2.32-6.38 2.77-1.32 7.92-1.06 9.08 1.79 1.15 2.84 0.87 5.73-1.9 7.05-2.76 1.32-9.48-0.34-10.91-3.05l3.09 0.29m-12.19 7.35c-1.7-2.55-0.05-7.57 2.59-9.13 2.65-1.55 4.88 0.88 6.4 3.54 1.53 2.66-0.78 6.68-3.43 8.23-2.64 1.56-5.92 1.64-7.62-0.91l1.42-2.37m-10.57 8.64c-2.19-2.14-1.81-4.67 0.59-6.58s6.48-3.13 8.31-0.67c1.82 2.46 1.73 6.73-0.68 8.64-2.4 1.91-5.66 2.06-7.86-0.08l-0.82 0.56m-9.22 5.88c-2.01-2.31-0.77-3.2 1.54-5.22s5.55-3.98 7.77-1.87c2.23 2.11 1.02 6.75-1.29 8.77s-6.53 1.53-8.54-0.79l-0.84 1.06m-9.08 7.8c-2.33-2-3.23-4.39-1.02-6.52 2.21-2.12 6.19-3.26 8.3-1.04s2.72 7.27 0.51 9.39c-2.22 2.13-4.85 1.67-7.17-0.33 0 0-2.19 0.81-2.19 0.81m-6.21 9.71c-2.51-1.76-3.35-5.46-1.4-7.82 1.95-2.37 6.68-2.01 9 0 2.32 2 3.19 3.56 1.24 5.93-1.94 2.37-6.97 2.84-9.48 1.08l0.71 1.64m-8.65 10.25c-2.56-1.7-2.82-4.7-1.03-7.19 1.8-2.49 5.62-4.11 8.13-2.35s4.01 5.71 2.22 8.2-6.49 2.08-9.05 0.38l0.25 2.21m-6.39 10.45c-2.82-1.22-5.56-4.25-3.96-6.87 1.6-2.61 6.19-4.25 8.73-2.53s5.49 3.86 3.89 6.48c-1.6 2.61-5.8 3.34-8.61 2.12 0 0-0.24 0.35-0.24 0.35m-6.48 12.57c-2.78-1.3-3.12-4.6-1.7-7.32 1.42-2.71 3.09-4.04 5.92-2.86 2.83 1.17 5.01 5.66 3.59 8.38s-4.6 2.97-7.37 1.67l2.79-0.27m-8.25 13.22c-2.94-0.88-4.59-4.64-3.46-7.49s5.3-3.49 8.12-2.29c2.82 1.21 3.73 4.48 2.6 7.33s-5 3.2-7.94 2.32l0.59-1.87m-4.11 12.7c-2.9-1.01-3.99-3.13-3.01-6.03 0.98-2.91 7.06-4.42 10.05-3.74 2.99 0.69 1.59 5.76 0.62 8.66-0.98 2.91-4.31 4.25-7.2 3.24l-0.77-0.56m-2.66 14.01c-3.02-0.54-4.46-3.39-3.96-6.42 0.5-3.02 3.71-5.63 6.67-4.85 2.97 0.78 4.86 3.91 4.36 6.94s-4.38 5.14-7.4 4.6 2.42-0.46 2.42-0.46m-2.05 15.53c-3.05 0.32-6.94-5.08-6.58-8.13 0.37-3.04 4.15-4.69 7.16-4.15 3.02 0.55 4.66 2.54 4.29 5.58s-1.89 4.55-4.94 4.87l-1.08-2.03" clip-path="url(#clipPath39732)" transform="matrix(.47766 0 0 .47766 523.28 138.73)" filter="url(#filter4784)" fill="#a7c302"/>
      <g id="g28114" filter="url(#filter18215)" transform="matrix(.49101 0 0 .49101 244.79 575.52)">
        <path id="path28116" fill-opacity=".98039" fill="#e2e100" d="m400.31-476.89c-2.37 1.73 6.47 87.51 7.87 89.43 1.39 1.9 7.95 1.38 10.6 0.47 2.45-0.83 47.26-79.76 46.04-82.44-7.25-10.68-27.15-10.41-32.39-11.24-10.51-0.4-22.67-1.44-32.12 3.78zm-56.6 34.94c1.95 3.29 55.69 55.96 56.73 56.93 0.95 0.88 4.96 0.08 5.75-2.1 0.73-2.02-10.93-87.51-11.01-88.32-18.82-0.39-45.36 13.74-51.47 33.49zm123.53-24.97c-1.74-0.4-36.91 63.62-44.93 81.68-0.45 3.74 2.54 5.13 4.65 4.28 1.9-0.75 72.56-55.94 72.9-57.03-0.67-11.69-22.66-29.55-32.62-28.93zm-125.35 27.04c-19.88 10.95-34.92 53.02-29.78 75.01 1.91 3.06 78.92-9.52 81.57-10.71 2.59-1.16 6.07-6.15 5.38-8.59-0.71-2.5-56.26-55.31-57.17-55.71zm161.49 4.07c-2.21-1.93-75.48 55.94-75.76 56.67-0.26 0.7 0.06 2.53 1.81 3.15 2.57 0.91 88.47-25.52 88.76-26.26 4.34-11.03-6.54-33.17-14.81-33.56zm13.77 37.08c-1.04-0.56-86.83 23.12-88.78 24.65-1.07 0.84-2.29 5.06-1.28 6.91 1.12 2.06 76.46 41.22 77.54 40.58 9.77-5.71 16.85-20.03 17.52-25.3 0.66-5.14 1-10.39 1-15.72-0.8-9.25 1.12-24.54-6-31.12zm-205.84 38.99c-0.48 19.62 7.11 45.67 22.71 58.58 0.98-0.51 59.11-55.26 64.48-63.23 1.44-2.15-3.8-8.19-4.72-8.28-0.92-0.1-81.83 9.72-82.47 12.93zm115.34-4.4c-0.28-0.01-0.61 0-0.97 0.03-2.9 0.68-6.98 1.21-7.47 4.22-0.5 3.16 39.72 83.64 41.84 83.28 18.85-6.07 44.83-26.59 42.21-48.46-0.26-0.81-61.16-31.69-73.08-38.64-0.11 0.19-0.52-0.42-2.53-0.43zm-25.26 0.75c-1.55 0.1-63.84 63.85-64.33 65.12 5.26 16.74 33.37 36.67 52.09 33.09 0.63-4.65 17.24-94.48 15.56-96.03-1.61-1.48-1.77-2.28-3.32-2.18zm14.42 3.18c-1.63-1.35-5.54-2.05-7.31 0.04-1.84 2.16-17.3 95.19-14.63 96.84 16.88 8.46 48.79 4.1 61.56-10.66-0.33 0.13-38.06-84.91-39.62-86.22z"/>
        <path id="path28118" fill="url(#radialGradient19463)" d="m400.31-476.89c-2.37 1.73 6.47 87.51 7.87 89.43 1.39 1.9 7.95 1.38 10.6 0.47 2.45-0.83 47.26-79.76 46.04-82.44-7.25-10.68-27.15-10.41-32.39-11.24-10.51-0.4-22.67-1.44-32.12 3.78zm-56.6 34.94c1.95 3.29 55.69 55.96 56.73 56.93 0.95 0.88 4.96 0.08 5.75-2.1 0.73-2.02-10.93-87.51-11.01-88.32-18.82-0.39-45.36 13.74-51.47 33.49zm123.53-24.97c-1.74-0.4-36.91 63.62-44.93 81.68-0.45 3.74 2.54 5.13 4.65 4.28 1.9-0.75 72.56-55.94 72.9-57.03-0.67-11.69-22.66-29.55-32.62-28.93zm-125.35 27.04c-19.88 10.95-34.92 53.02-29.78 75.01 1.91 3.06 78.92-9.52 81.57-10.71 2.59-1.16 6.07-6.15 5.38-8.59-0.71-2.5-56.26-55.31-57.17-55.71zm161.49 4.07c-2.21-1.93-75.48 55.94-75.76 56.67-0.26 0.7 0.06 2.53 1.81 3.15 2.57 0.91 88.47-25.52 88.76-26.26 4.34-11.03-6.54-33.17-14.81-33.56zm13.77 37.08c-1.04-0.56-86.83 23.12-88.78 24.65-1.07 0.84-2.29 5.06-1.28 6.91 1.12 2.06 76.46 41.22 77.54 40.58 9.77-5.71 16.85-20.03 17.52-25.3 0.66-5.14 1-10.39 1-15.72-0.8-9.25 1.12-24.54-6-31.12zm-205.84 38.99c-0.48 19.62 7.11 45.67 22.71 58.58 0.98-0.51 59.11-55.26 64.48-63.23 1.44-2.15-3.8-8.19-4.72-8.28-0.92-0.1-81.83 9.72-82.47 12.93zm115.34-4.4c-0.28-0.01-0.61 0-0.97 0.03-2.9 0.68-6.98 1.21-7.47 4.22-0.5 3.16 39.72 83.64 41.84 83.28 18.85-6.07 44.83-26.59 42.21-48.46-0.26-0.81-61.16-31.69-73.08-38.64-0.11 0.19-0.52-0.42-2.53-0.43zm-25.26 0.75c-1.55 0.1-63.84 63.85-64.33 65.12 5.26 16.74 33.37 36.67 52.09 33.09 0.63-4.65 17.24-94.48 15.56-96.03-1.61-1.48-1.77-2.28-3.32-2.18zm14.42 3.18c-1.63-1.35-5.54-2.05-7.31 0.04-1.84 2.16-17.3 95.19-14.63 96.84 16.88 8.46 48.79 4.1 61.56-10.66-0.33 0.13-38.06-84.91-39.62-86.22z"/>
      </g>
      <g id="g28120" filter="url(#filter18215)" clip-path="url(#clipPath4694)" transform="matrix(.49101 0 0 .49101 632.66 685.64)" fill-opacity=".92157">
        <path id="path28122" filter="url(#filter4669)" fill="#d9ff34" d="m-376.81-580.99c5.8-10.65-17.97-19.39-13.07-6.76 10.21 10.56 14.59-14.59 27.34-4.57 7.74 9.03-9.16 26.17-16.06 12.61-0.99-1.8-1.46-3.86-1.51-5.9m-4.02-9.67c7.07-0.83 12.95 3.56 4.89 7.39-5.82 9.46-33.69-0.01-19.88-9.12 6.35-3.3 11.3 7.53 15.54 4.83m7.61-15.12c-2.51 4.06 3.96 21.16 2.48 10.15-5.5-2.37-21.41-10.89-10.13-15.27 5.15 1 6.94 7.67 12.41 8.01m8.91 1.61c-1.13 3.88-8.67 15.4-6.62 4.45-4.97-7.05 3.41-28.22 10.19-13.92 2.01 5.06-4.89 5.72-7.7 7.67m11.79 15.31c-8.49 8.48-22.53-8.63-10.34-9.21 7.46 8.37 20.97-7.67 23.79-1.4 0.56 5.58-22.46 11.82-8.02 8.99m-7.62 12.18c-6.25 0.03-17.27-10.55-4.25-7.81 10.01-3.9 26.92 14.72 9.68 14.46-3.26-0.95-5.94-5.69-1.62-7.49m-14.05 12.99c-4.64-0.7-4.69-16.65 1.04-8.26 7.36-10.03 16.17 23.05 5.28 16.62-2.46-2.03-5.41-7.09-6.78-8.18m-20.8 0.9c5.2-0.13 16.24-4.95 8.29-10.18 12.55 0.84 9.26 26.77 0.11 23.45-1.92-5.13 2.96-20.11-7.91-11.63m-6.15-1.79c-0.4-7.26 1.89-24.06 11.03-12.19-2.11 7.7-7.62 16.83-16.83 20.17-0.08-3.88 1.07-15.05 7.3-12.42m-10.23-7.53c10.65-12.06 12.4 11.64-0.49 8.9-10.3-1.32-9.17-12.91 1.12-12.04m-6-17.26c3.85 3.06 23.73 2.13 10.36 6.79-4.35 6.79-25.2 9.98-18.41-2.36 5.5-3.86 17.66 1.28 6.54 6.23m2.75-12.74c4.72 0.07 22.77-10.5 15.86-0.12-8.14 0.76-16.66-7.04-23.77-3.92-5.83-10.87 12.51-12.32 11.14-3.65l-0.92-1.6-0.88-1.32m11.63-9.69c9.27-0.67 11.63 17.63 1.37 9.27-5.66-4.11-24.01-13.81-13.29-19.92 3.19-0.7 21.54 11.63 11.51 11.45m14.87-6.26c4.14 5.95 2.03 16.19-4.62 6.99-5.36-3.85-14.26-17.72-8.13-20.25 1.95 5.97 15.05 13.48 14.87 9.28-1.6 0.16-3.23 0.07-4.8 0.52m16.58 1.89c1.55 10.58-9.36 10.74-8.91 0.09-2.94-8.34 9.2-24.94 12.3-9.75 1.42 3.5 3.32 13.84-3.8 10.77m15.36 5.9c-13.43-7.56-2.45 15.2-5.81 12.67-9.41-9.21-3.64-30.06 11.03-27.99-1.14-4.26-6.88 6.31-4.14 11 0.33 3.77 0.56 13-4.79 5.14m12.4 8.36c3.28 9.95-22.31 0.54-9.64-3.89 2.15-7.34 15.11 2.2 14.63-8.83 5.39-15.73 6.43 14.61-2.92 12.83-3.2-2.03-6.17-0.13-9.57 0.36m20.21 10.73c-4.32 8.17-27.04 7.27-14.15-3.09 3.27-5.18 23.77-8.7 13.03-0.31-3.83 3.81-9.68 11.08-5.85 0m5.08 19.73c-9.51 4.52-22.26-6.44-7.91-10.82 6.97-3.48 24.68 2.55 11.25 8.74-4.59-2.7-0.54-8.61-1.25-0.4 0.27 0.97 0.33 1.98 0.49 2.98m-5.64 7.88c-4.23 15.31-19.2-6.04-3.96-5.04 7.37 0.18 28.25 6.48 16.12 14.34-6.37-0.08-11.86-4.1-18.05-5.06m-0.29 13.66c-5.79-2.51-12.65-19.31-1.25-10.34 7.16 2.55 19.21 13.81 14.35 19.69-4.43-0.06-17.74-5.5-10.03-10.05-2.03-0.32-4.06 0.4-6.08-0.03m-9.04 9.47c-6.33-3.05-9.56-20.72 0.05-11.97-0.16 5.65 8.43 18.26 8.12 16.86-1.36-0.81-15.72-14.89-11.05-6.68m-15.36 6.02c4.66-4.89 1.2-23.84 7.14-9.19 5.69 4.53 5.39 25.36-3.38 12.61-3.84-6.27-2.6-6.62-0.26 0.93m-14.67-3.99c1.62-4.52 2.58-15.4 6.51-5.57 3.76 5.02-0.1 25.16-6.08 14.94-0.02-4.06 1.88-13.96-5.55-11.38m-10.24-2.53c-10.88-4.44 18.61-13.58 9.13-1.31-1.86 6.87-8.26 24.86-15.86 12.22 0-3.73 10.27-18.42 4.12-7.47m-7.22-5.71c3.85-3.3 10.42-20.78 8.72-6.93-2.66 5.9-10.37 18.89-15.59 15.34 1.99-3.21-0.41-10.2 3.31-11.07m-3.05-10.63c-2.52-7.95 15.3-7.4 5.36-1.08-3.65 3.41-23.68 13.88-13.54 2.82 1.98-3.13 6.92-8.53 2.94-1.27m-6.07-17.02c3.04 3.38 19.83 5.59 9.86 5.48-5.59 8.28-26.09 17.35-23.03-0.18 0.95-12.41 28.16 6.94 13.49-5.07m-5.15-17.47c1.6 4.51 8.85 16.71 12 6.84 4.91 13.81-15.76 13.51-17.01 5.82-13.41 2.86 8.4-14.43 9.35-11.61-0.92 2.09-2.13 4.04-3.23 6.03m7.14-16.51c10.86-8.03 15.09 18.21 1.07 10.07-6.68-1.08-28.45-0.26-20.27-11.06 3.95-1.89 18.78 3.43 10.42-5.73m8.21-6.94c4.46 2.42 19.44 8.33 5.75 7.96-5.52-1.7-20.4-9.46-17.66-10.92 4.99 1.4 10.14 2.67 14.53 5.52m-0.84-11.6c3.79 2.66 23.58 8.35 12.83 11.71-7.88-1.98-15.69-16.19-14.7-19.32 1.69 6.9 21.68 4.86 15.65 8.64m3.27-9.34c12.01-4.8 12.09 18.97 2.15 10.02 2.34-7.14-17-16.02-7.25-18.42 3.26 2.99 13.37 3.63 10 0.99l1.32 1.09m14.03 0.55c-1.48 5.88 0.95 14.05-7.1 8.99-14.06 0.59-14.36-30.53 0.05-17.77 1.84 1.78 3.34 3.86 4.79 5.95m16.29-1.67c-10.54-0.15-6.08 19.75-6.61 2.32-12.63 6.61-4.09-23.35 0.85-10.24-3.75 6.12 5.63 6.03 3.25 7.94m14.49 2.63c1 6.84-11.48 19.06-8.35 4.94-1.52-6.56 1.66-28.11 9.65-14.87 0.45 4.2-2.45 8.87 0.49 12.67m14.49-0.76c3.28 12.18-19.57 17.02-14.45 1.79 0.69-7.63 26.05-18.46 11.47-2.11m14.75 16.57c-5.14-6.6-19.19 3.6-9.66-5.01 3.16-6.3 9.82-20.1 13.07-6.54 6.22 13.68-12.11-4.89-6.02 8.71m11.74 9.72c-5.27 0.87-21.21 1.92-8.41-3.93 6.73-4.91-7.15-6.55 3.16-8.44 7.76-1.77 12.05 7.72 2.12 8.47-1.55 0.91-2.89 2.37-3.26 4.18m8.52 14.13c-5.87 5.2-18.22-1.55-6.48-5.6 3.34-8.2 22.36-14.13 18.24-0.59-1.22 2.54-16.09 10.36-7.74 2.13m2.52 14.49c-5.27 9.47-21.79 0.77-7.72-5.42 6.5-7.33 24.78 6.31 9.79 6.88-2.1 0.35-4.21 0.73-6.21 1.47m4.42 17.68c-8.12-1.79-19.54-11.88-4.79-12.98 3.15-2.21 11.19-1.65 8.01 3.97 7.37-1.76 9.16 4 0.82 2.69-4.37 1.66-10.41 7.28-13.55 0.52m-2.39 18.78c0.06-4.69-11.65-16.26 1.9-14.1 5.87 4.63 13.42 3.68 18.8 4.44 10.65 7.85-18.48 6.55-9.84 7.81m-8.8 11.39c-7.5-4.12-5.88-15.52 3.1-8.45 7.28 2.77 13.04 19.29 0.04 11.49-2.14-0.95-5.04-2.85-3.99-5.65m-4.94 18.29c-11.85-3.02-11.83-26.58 1.85-14.98 9.39 7.44 9.43 25.39-7.6 11.24m-6.49 9.17c0.6-5.53-16.49-19.43-4.78-15.72 5.57 2.08 16.18 11.62 6.47 15.58 4.83 4.52 4.98 10.9-0.6 3.38-1.72-2.34-3.26-5.83-6.65-5.84m-13.14 9.01c1.2-4.33-0.55-22.64 6.23-11.33 4.32 5.79 9.31 25.02-3.76 15.78-3.63 0.4 0.11-4.57-0.56-6.21m-12.41 5.02c-4.85-6.76 7.02-24.98 6.8-8.97 5.85 7.65 7.09 27.13-5.02 13.55-2.12-6.33-4.08-10.74-7.78-1.68m-8.37-3.29c-1.75-9.26 9.56-11.34 5.71-1.06 0.48 4.42 3.25 21.13-4.88 14.21-1.31-2.85 1.28-13.31-5.07-9.27m-12.34-9.85c6.51 4.34 14.06-18.72 13.35-2.86-3.26 7.28-10.11 13.54-9.39 22.14-1.42-5.27-2.17-11.1-5.85-15.38m-12.28-8.54c2.52-11.03 17.47-12.01 16.49 0.84-10.18 1-6.99 15.54-17.1 14.5-1.98-1.98-1.34-13.48 3.13-12.75m-1.19-3.26c-7.25-2.48-5.51-17.22 0.56-9.64 2.86 8.91-8.37 26.63-15.25 18.14 2.51-3.89 10.1-11.09 2.41-14.05m-12.17-5.17c2.12-5.72 19.01-17.04 17.58-6.34-5.11 5.22-17.62 18.08-22.58 12.46 1.79-3.89 6.04-7.43 7.96-10.47m-6.97-11.58c5.14-6.25 19.56-12.93 15.04 1.21-3.35 7.71-22.6 12.28-23.11 3.13 2.76-1.98 6.67-2.01 9-4.62m-2.23-13.56c8-8.33 6.28 14.48-3.86 10.46-6.41-1.88-16.04 1.9-7.96-5.97 2.27-4.04 7.97-11.02 9.56-1.94m-3.82-17.59c4.22 1.84 19.08-1.79 9.28 5.51-5.83 4.99-26.67 8.78-19.27-3.23 0.86-0.86 11.03 1.9 5.65-0.82m6.48-8.24c5-0.65 13.84-2.42 4.68 0.74-7.33 11.49-28.45-8.82-12.81-10.13l2.06 0.54m10.13-11.49c7.38-5.75 18.79 4.81 5.48 7.21-10.44 8.43-31.88-5.11-14.85-12.79 1.78-0.02 7.18 0.4 6.01 3.37m0.82-6.99c7.08-14.55 23.65 11.54 8.76 8.52-2.38-10.04-14.1-7.63-19.27-11.32-0.53-9 8.6-8.15 10.23-1.04 2.1 1.14 4.75 1.02 6.81-0.12m8.28-11.69c9.44-1.14 11.57 14.51 0.08 9.02-7.55-1.67-18.93-11.46-11.19-19.02-7.42 4.81 11.61 17.62 6.18 11.07m11.11-11.38c12.93-4.51 9.31 23.29 0.11 9.48-2.32-5.3-2.05-12.4-8.53-12.92-1.11-4.74 16.61-7.05 12.39-1.48m9.56-6.33c5.43 4.25 13.87 21.68-0.1 13.8-9.45-2.46-12.35-25.76 0.3-15.4 2.63 3.52 0.29 7.64-2.94 2.32m20.67-2.44c6.34 5.95 1.32 24.6-5.92 10.65-3.17-7.07-15.04-17.39-4.95-22.62-1.64 6.64 3.49 17.93 10.89 10.02m11.59-4.75c9.58 5.44-3.68 25.17-6.01 8.58-5.36-6.34-1.45-23.36 7.47-13.81-3.13 6.65-4.91 6.63 2.65 10.52m9.98-3.36c5.66 8.37-7.45 19.28-8.6 5.42-9.57-7.46 9.88-27.04 10.78-10.41 0.71 2.62-1.68 5.52-4.44 3.87m15.24 4.24c9.34 5.46-9.91 18.5-4.23 5.83 8.06-6.02 3.36-12.28-3.87-15.38-2.96-13.94 24.21 6.53 8.01 5.99l-0.4 0.13m17 7.63c-6.56 0.14-4.84 18.77-9.96 7.39-12.58-7.53 17.26-24.39 8.22-9.42-0.33 2.64-3.12 3.07-2.91-0.27m19.61 10.89c-0.97 9.27-21.52 10.73-10.91-0.28-0.72-6.41 9.19-22.41 11.98-9.03-1.87 3.45-4.47 6.43-6.37 9.86m13.1 3.25c2.91 12.53-22.91 21.14-13.63 3.96 2.07-10.44 27.96-13.69 16.77-1.23-1.12 0.79-2.73 2.26-2.19 3.89m11.73 5.46c-0.91 7.5-23.04 13.18-12.1 2.42 4.52-3.11 12.2-17.03 16.3-9.83-1.3 3.1-4.44 10.72-8.87 7.26m7.82 18.57c-3.82-0.43-20.74 0.61-9.65 3.13 7.92-2.73 15.78-29.5 22.57-12.91 0.29 8.09-8.49 10.82-11.83 4.09-4.28 0.37-6.52 4.77-10.32 6.22m14.71 13.91c-4.51-3.55-13.33-7.37-16.9-0.66 3.47-11.31 19.73-12.28 28.64-7.2-6.29 1.23-9.75 7.31-15.44 9.64m0.62 13.92c-1.98-5.64-18.27-6.3-5.57-10.91 8.76-4.53 32.4-5.51 25.02 9.72-5.42 4.61-20.82-1.14-10.07-7.74m-4.2 22.58c-7.53 1.09-17.38-12.63-4.21-10.76 5.58-3.56 11.82-11.48 15.24-1.06 6.36 10.88-6.59 6.87-12.56 9.39l-1.2-0.72m0.91 15.34c-5.08-1.3-19.29-3.77-7.36-8.16 5.48 1.17 18.79 7.5 18.87 4.58-2.88 6.29-19.01 8.63-12.29-1.36m-4.12 16.03c-5.58 9.68-22.55-8.82-6.68-5.57 8.38-6.07 19.01 1.77 18.33 9.4-4.19 2-12.57 3.6-15.38-1.06m-7.1 11.31c-13.53 1.42-2.62-18.59 2.79-6.08 3.65 4.13 21.83 13.38 7.79 16.13-4.28-1.9-7.03-6.08-8.73-10.28m-15.45 5.17c14.87-2.03-15.67-9.03-1.41-8.05 10.23 2.52 18.47 8.57 25.68 16 0.41 6.68-24.51-1.55-13.13-0.35m-14.66 7.74c2.79-6.58-6.62-17.3-7.04-11.54 7.97 3.38 22.82 12.01 18.86 21.44-5.46 2.76-13.58-4.27-11.66-10.11m-10.91 10.1c-5.97-1.84-8.15-20.44-1.81-15.34-1.42 8.4 7.72 16.97 8.65 20.59-7.3 9.84-12.46-24.25-7.77-6.71m-16.54 4.37c-6.08-6.57 8.18-15.14 6.82-4.26 9.42 3.76 12.74 16.64 0.96 18.78-3.24-8.4-4.93-19.63-15.79-8.71m0.02-1.58c-9.57-0.97 0.13-24.98-3.45-10.38 4.92 7.4 12.05 18.44-0.31 23-5.05-0.63-6.09-10.97-1.32-12.79m-17.65 3.98c5.51-5.61-7.07-24.36 3.1-15.63 9.73 6.41 12.96 23.27 2.98 30.72-5.83 3.77 1.17-21.04-6.13-14m-6.44-6.75c-8.13-2.11-10.11-13.28 0.66-11.3 1.67 6.1 5.72 22.51-4.53 23.46-1.16-2.22 1.41-13.1-4.01-8.95m-13.17-2.82c-3.46-7.92 12.86-21.86 8.67-6.28 1.15 6-7.42 20.72-10.46 10.6 3.37-2.65 11.13-5.89 1.93-5.52m-14.09-9.11c-3.34-9.78 19.3-12.22 11.79-3.37 6.2 8.21-13.72 16.36-11.93 13.84 2.88-4.26 0.8-11.19 6.38-13.72m-17.9-1.71c-2.77-8.46 18.57-17.87 11.99-6.34-6.89 3.5-6.28 12.76-9.99 15.98-12.23 4.73-7.19-14.41-1.89-10.2l-0.65 1.13m-7.91-14.5c0.71-13.02 22.24-0.4 7.96 2.33-7.6-2.54-3.65 19.41-10.08 6.92 1.98-3.92 15.98-7.41 4.32-6.9-1.77 0.06-3.55 0.17-5.32 0.15m-5.16-13.51c4.41-1.54 24.35-9.05 14.07 1.09-4.77 8.64-21.26 18.71-26.39 6.66 3.03-3.37 8.67-3.26 11.68-6.22m-6.36-8.87c1.93-7.94 25.27-7.72 10.09-2.24-4.25 5.4-11.66 7.76-16.43 6.29-9.22 11.36 7.53-21.61 4.49-4.95m-1.77-16.36c2.72-10.39 19.96-0.57 7.03 4.28-2.99 5.17-19.64 5.78-17.71 2.71 6.28 0.47 13.21-20.02 4.94-7.94m3.07-15.41c10.85-6.44 13.23 13.07 0.3 9.22-11.04 3.96-17.36-11.71-3.93-12.19 5.52-1.83 5.15 4.2 2.67 6.99m4.65-15.79c11.6-7.05 4.13 11.34-3.9 6.31-6.35 5.36-23.21-5.61-9.01-7.83 0.77-0.15 12.02-6.75 7.23-2.21m-0.76-15.02c0.88 4.61 18.15 11.57 10.24 6-6.59 5-14.84 17.44-22.16 5.25-6.43-6.23-1.63-18.6 7.68-12.3 2.9-0.09 11.65-0.39 4.98 4.3m1.36-15.06c5.16-2.39 22.38 7.73 9.32 5.55-7.44 3.99-23.18 1.24-13.78-8.97 3.94 0.41 6.62 3.82 9.8 5.8m6.19-19.26c-5.09 7.01 11.42 15.08-0.34 10.1-7.84-3.08-11.31 0.72-15.49-6.78-4.03 8.16 26.84 6.64 11.55-2.16m8.53-12.94c5.44 3.91 14.33 17.04 0.51 12.64-6.28-0.79-18.33-19.75-5.36-14.2 2.49 1.5 4.79 3.29 7.19 4.93m8.93-11.22c14.88-3.29 1.98 22.27-4.3 7.16-3.47-5.14-14.26-3.65-8.43-11.98 3.53-2.06 12.17 1.19 12.15 4.8m11.75-10.71c6.54 4.05 7.86 16.32-2.8 11.53-11.6-3.33-13.06-25.11 2.4-19.39 6.67 1.75-6.88 13.57 3.43 7.77m10.83-8.05c1.29 3.73 5.91 16.28-1.73 8.15-4.38 0.48-11.23 5.62-7.76-2.83-1.3-5.41-0.31-22.03 4.91-8.65 0.37 1.37 1.36 3.47 3.15 2.99m12.45-5.05c8.51 6.76-1.79 19.64-5.71 5.66-4.5-4.78-9.76-19.73 1.85-11.29 2.35 1.66 4.42 4.03 4.85 6.97m11.49-1.33c11.67 5.69-2.6 15-6.1 4.15-4.63-7.07 2.7-22.55 8.18-9.32 1.25 2.04 3.05 7.08 0.5 1.63m15.3-1.81c-2.91 5.32-7.34 13.61-6.46 18.51-4.43-10.61-3.27-21.09 0.15-31.11 4.79-8.3 9.6 14.78 3.04 16.4m14.34 0.69c3.09 12.32-14.04 3.84-5.47-3.2-2.4-6.4 6.58-19.83 6.86-6.11-0.03 2.36-0.46 4.68-0.76 7.01m17.66 7.31c-10.03 12.41-20.66-4.78-9.67-12.96 8.53-7.48 15.8 9.49 3.38 9.57m18.43 2.32c-1.28 4.04-9.39 15.52-6.4 4.27 10.06-7.45-17.57-16.46 0.21-16.76 7.84-0.96 5.93 7.79 6.21 12.57m16.28 1.53c-3.44 4.78-12.08 25.71-15.2 10.9-1.1-9.35 7.64-18.2 14.76-21.02 0.22 5.87-3.39 11.3-3.5 17.17m15.1 3.89c-0.16 10.08-19.49 14.45-12.14 0.84 0.9-6.17 20.53-16.71 7.98-8.38-3.3 3.49-3.88 11.36 2.63 11.37m6.97 8.34c-4.8 2.69-19.19 10.87-5.63 5.33 4.85-4.22 6.83-26.44 14.05-12.72 0.22 0.35-0.6 9.13-0.72 5.34m-1.38 13.19c-5.35 1.31-9.89 9.3-4.12 0.74 3.3-9.48 15.43-18.56 17.94-3.64-0.23 2.35-10.89 4.35-8.66 2.81m6.03 11.79c-0.47 8.65-18.25 8.65-8.07-0.21 0.89-13.16 22.3-12.51 17.28-2.86-3.38 2.46-6.4 6.16-10.72 6.87m10.97 8.56c-2.1 9.72-26.93 3.23-11.4-2.07 6.92-7.28 25.55-8.14 21.21 5.97-4.27 2.19-9.23-2.64-13.41-0.12m8.47 7.44c-2.23 5.02-23.57 8.52-10.48 4.54 4.44-3.38 17.71-15.69 17.48-4.28-1.05 1.26-11.33 4.35-9.15 4.17m1 14.9c-6.52 3.69-20.65-10.38-6.14-6.74 5.9 1.97 22.06-8.7 14.25 1.71 0.8 3.51-11.82 7.44-5.06 6.37m0 13.29c-5.37 3.64-24.26-3.4-11.43-6.87 6.08 1.52 21.73 0.59 21.65 3.44-4.01 1.72-12.59-0.09-12.5 6.4m-3.53 12.29c-8.98 0.73-13.92-15.64-1.47-10.44 2.59 4.94 5.48 9.45 10.76 7.18 5.56 2.77 8.37 9.14 0.37 5.46-1.78 0.55-12.47-9.02-8.34-2.2"/>
        <path id="path28124" fill="#fefff6" d="m-376.84-703.73c-2.69 6.76-3.74 14.58-2.69 21.84 1.27-3.12 2.67-6.19 4.35-9.12 3.23 4.17-0.74 0.15 0.4-2.22 0.22-3.41-0.01-7.93-2.06-10.5zm14.19 3.69c-3.51 3.02-1.83 8.17-3.41 11.53-3.22 1.75 0.15 6.98 2.75 5.22-0.41-5.6 2.18-11.48 0.66-16.75zm13.75 5.09c-5.52 1.43-8.81 8.83-5.03 13.5 0.96 3.89-4.3 1.53-3.69 4.41 3.49 0.74 5.14 5.46 8.44 5.28 2.64-0.5-1.83-3.66-2.57-4.41-1.43-4.13 3.44-3.26 5.25-5.4-4.63-0.24-5.06-6.63-0.59-6.29 4.08-1.08 1.83-7.6-1.81-7.09zm-44.47 0.41c-4.32 3.79-3.26 12.62 1.78 15.34 3.08 1 5.16-3.09 1.72-4.44-4.44-1.54-0.34-5.37-0.63-7.65-0.72-1.03-1.31-3.26-2.87-3.25zm56.28 0.87c-4.66-0.64-3.79 1.25-0.5 3.5 2.1 1.36 4.09 5.45 4.47 6.69-0.38-3.01 1.72-11.28-3.97-10.19zm-74.75 1.31c0.55 5.9 4.83 10.5 7.28 15.6 2.13 2.24 3.49-2.85 2.53-5.03-2.23-4.39-4.57-9.14-9.81-10.57zm24.84 1.16c2.01 0.21-3.45-1.39 0 0zm69.38 2.97c-6.54 4.02-13.4 12.96-9.03 20.75 2.92 2.04 1.86 4.2 0 6.41-2.33 3.91-1.62 8.68-4.97 12-0.56 2.5 4.54 0.75 5.56 0.34 5.04 0.86 1.59 7.43-2 5.87-3.38 2.58-6.04 8.18-6.75 10.94 3.79 0.99-0.6-5.52 3.88-5.78 3.02-0.84 6.57 4 8.03-0.34 4.55-1.02 9.18-4.86 9.06-9.88 5.27-1.01 3.53-0.44 2.5-4.22 0.39-1.63-4.57 0.31-6 0.78-3.56 0.5-5.92 1.09-9.08-0.78-1.75-4.74 8.73-9.2 4.02-13.65-4.01-1.55-1.54-4.89 0.37-7.35 2.14-4.55 3-10.38 4.41-15.09zm-104 2.25c-1.28 4.34 0.95 8.95-0.69 13.09 2.63-0.99 6.73-2.48 8.41-1.12-0.72-2.79-0.98-5.7-4.28-5.88-2.01-1.41-2.23-4.49-3.44-6.09zm-11.91 6.47c-6.24 1.16-4.32 10.06-1 13.5 2.32 2.27 6.29 4.73 9.41 3.37 1.05-2.98-0.93-7.68-4.47-6.87-3.73-2.5 2.22-6.61 0.97-9.13-1.65-0.52-3.18-1.04-4.91-0.87zm66.91 0.84c-5.64 1.71-9.44 10.15-4.53 14.23-0.09 2.48 1.94 7.47 4.59 4.05 1.95-2.01 2.75-6.73-0.37-7.9-0.94-3.76 4.29-2.84 2.75-6.5-0.2-1.36-0.41-4.25-2.44-3.88zm-13.81 1.25c-3.77-0.47-4.88 5.29-4.32 8.53 1 3.68 2.32 7.32 3.94 10.69 1.57 0.89 4.18 2.51 2.47 4.97-0.91 2.16-0.72 7.85 2.94 5.47 3.06 0.49 2.53-1.89 0.25-3.1-2.3-2.57 0.84-6.03-2.02-7.97-2.18-2.37 2.71-6.45-1.98-7.49-4.32-2.16-1.46-7.26-0.56-9.94-2.58-1.05 2.22-2.36-0.72-1.16zm-21.66 2.75c1.33 2.43-0.55-3.25 0 0zm89.44 3.06c-1.19 2.28-3.95 6-2.1 8.22 2.09 0.6 5.36-0.76 6.1-2.18-2.48-1.12-3.59-3.95-3.56-6.54l-0.44 0.5zm-90.13 1.5c0.78 3.28 0.81 2.49 0 0zm108.69 1.91c-1.92 2.01-2.57 5.03-3.66 7.56 4.1 0.12 8.18-3.02 4.72-6.65-0.33-0.24-0.6-0.96-1.06-0.91zm-42.91 0.34c-3.93 1.36-10.08 5.31-8.46 10.13 1.57 0.77 3.37 5.52 3.62 1.97 1.09-3.63 3.21-6.3 3.94-9.81 0.28-0.65 1.12-1.83 0.9-2.29zm-64.9 0.5c0.64 1.58-0.04-0.52 0 0zm-47.6 1.91c-2.55 0.37-2.51 4.41 0.35 4.5 4.39 1.21 7.49 4.52 9.62 8.38 1.77 0.26 3 3.01 1.97 0.37-0.32 1.03 1.9-1.5 2.75-3.09 1.61-2.27 0.58-6.03-2.65-4.97-3.98 1.36-4.17-4.29-8.07-4.6-1.24-0.45-2.64-0.67-3.97-0.59zm11.94 13.25c1.47 3.54-0.04 0.19 0 0zm64.66-13c-2.87 1.06 0.07 1.67 0 0zm-27.44 0.69c1.97 3.84 7.93 8.28 3.72 12.25-1.29 4.14-0.67 8.35 1.44 11.44 1.91 2.59 5.1 4.21 4.78 7.84 2.18 6.43 7.39 11.8 12.22 15.87 1.61-7.09-5.2-11.71-10.22-15.25-1.8-2.16 1.73-4.73 3.69-3.12 0.73-3.94 2.04-8.81-1.82-11.75-3.42-2.71-3.09-6.26-2.59-10.13-0.13-2.66-1.41-6.98-4.63-4.43-2.8 0.61-5.52-1.11-7-3.41l0.41 0.69zm-13.03-0.41c-2.29 4.47 0.75 11.12 4.91 13.69 1.76 0.28 4.91 3.22 6.06 1.84-0.66-5.36-4.94-9.24-7.16-13.84-1.1-0.78-2.39-1.82-3.81-1.69zm-0.22 0.16c0.04-0.06-0.1-0.03 0 0zm62.59 2.81c-2.12 2.38-4.68 6.58-8.03 3.97-4.09 4.18-1.84 11.77-4.45 16.33-6.27 1.16-9.14 9.61-7.55 15.48-0.87 2.84 3.29 7.24 4.72 3.22-0.09-2.52 1.51-5.49 4.38-4.69 1.88-3.93-2.42-8.89 2.28-11.78 3.85-5.23 1.74-11.66 4.34-17.31 2.18-1.06 4.51-3.02 4.6-5.63l-0.29 0.41zm62.41 1.16c-1.11-2.04-1-1.71 0 0zm-133.12 3.18c-2.08 0.28-7.33 1.07-3 2.79 1.89 4.08 3.93-0.98 5.5-2.72-0.83-0.11-1.68-0.12-2.5-0.07zm-1.32 4.88c-0.9 2.96 1.52 4.52 0 0zm138.57-3.38c-3.62 0.62-6.51 4.14-8 6.88 4.34-0.45 8.31 1.21 12.28-1.44-0.51-2.14-1.41-5.71-4.28-5.44zm-174.44 1.47c1.78 6.15 7.73 12.75 14.47 11.85 0.36-3.18-5.42-5.73-1.57-7.5-4.68 3.26-8.16-4.75-12.9-4.35zm36 2.16c2.43 3.76 1.79 11.01 6.62 12.28 2.85-3.29 0.93-11.84-4.59-9.37-0.59-0.88-1.71-2.53-2.03-2.91zm80.81 1.37c-2.24 3.44-8.89 4.56-9.72 9.63-2.02 3.36 1.18 6.37 0.22 9.47-3.4 1.75-5.98 8.25-5.59 10.15 1.52-2.49 4.96-2.16 7.18-1-1.24-3.81-1.35-10.75 2.44-11.81-0.73-1.22 0.76-4.66 3.53-3.75 2.11 2.55 3.25-1.75 3.07-3.62-6.02-1.26-0.16-5.88 0.9-8.63-1.31 0.56-3.98-3.79-2.03-0.44zm-95.66-0.12c0.88 1.14-0.86-2.46 0 0zm152.66 3.62c1.18 1.96-1-3.5 0 0zm-86.44 0.47c0.48-1.79-1.27-1.76 0 0zm86.22-0.68c0.49 0.85-0.18-1.59 0 0zm-87.44 0.71c1.85 1.09-2.53-2.7 0 0zm17-0.62c1.48 0.6 0.32-0.49 0 0zm0.69 0.06c-5.23 0.12 3.42 1.46 0 0zm56.75 2.85c-5.54 3.36-9.26 9.32-13.87 13.78 4-0.51 8.53-2.31 10.65-5.97 0.16 0.85 0.14-2.54 2.07-3.66 0.15-0.75 3.39-4.59 1.15-4.15zm-109.06 0.43c-0.06 1.81 3.16 3.71 4.25 5.32 3.3-3.21 1.41-3.27-2.09-4.29-0.76-0.22-1.5-0.75-2.16-1.03zm4.03 5.13c-1.12 1.75 1.65 4.14 0.25 0.31l-0.25-0.31zm125.09-4.53c-5.11 0.19-8.54 4.74-9.18 9.47-2.23 2.41-5.2 5.57-6.41 8.09 1 3.06 4.02 3.28 6.42 3.61 3.41 2.38 9.72 3.51 13.89 0.55 3.51-1.07 7.45 2.21 10.5 0.93 1.95-5.32-4.03-8.47-8.53-7.22-4.91 0.01-8.22 3.99-12.44 5.54-3.04-2.08-0.45-5.48-1.93-8.29 1.23-2.32 3.37-1.83 4.09-2.84 3.17 3.62 0.22 0.43 0.94-0.31 2.85-1.98 7.85-3.84 8.12-7.63-0.81-1.98-3.66-1.99-5.47-1.9zm-120.06 1.62c0.12 0.05 2.93-1.71 0 0zm-28.72 2.97c-1.56-0.03-5.67 3.43-4.15 3.53 2.78 0.8 6.49 3.68 9.18 2.19 1.93-1.7-2.2-6.52-5.03-5.72zm31.85 0.25c-5.58 1.73 2.34 0.71 0 0zm0.03 0.72c0.99-0.34 1.34-1.55 0 0zm1.31 1.03c-4.71-1.4 0.62 2.75 0 0zm-5.22 0.34c-3.89-0.06 1.57 3.31 1.31 5.38 1.68 4.59-3.98 4.18-6.65 2.56-0.85-2.24-0.87 1.36-1.25 3.03 0.86 3.93-4.5 3.11-6 1.6 2.23 2.39 5.5 5.31 8.5 2.68 5.66 3.62 11.36 8.47 17.12 11.32 0.8 0.56 1.48 1.08 2.35 3.34 1.57 1.93 4.89 4.75 6.56 4.84 0.84-3.65-1.97-7.29-5.34-7.87-3.18 1.34-3.88-1.43-4.63-4.5-1.03-2.9-4.74-3.48-5-6.5-3.04-2.33-5.44-5.36-2.56-8.41 0.68-3.54-0.86-7.81-4.41-7.47zm97.81 0.75c0.23-0.18-0.35-0.38 0 0zm-119.18 0.94c0.45 1.05 2.93-0.71 0 0zm-0.16 0.06c0.27-0.13-0.42-0.07 0 0zm77.31 1.1c-1.17 1.56 3.04-2.13 0 0zm-105.68 1.19c-2.79 0.68-2.48 4.61 0.71 4.31 3.59 0.68 6.58 2.55 3.1-1.75-0.64-1.45-2.15-2.78-3.81-2.56zm126.43 1.56c-4.04-0.23 1.24 2.97-0.56 5.28 1.62-0.61 7.41-1.21 4.59-4.19-1.04-1-2.63-1.31-4.03-1.09zm-130.72 0.15c2.11 0.62 1.45-0.13 0 0zm70.57 1.63c1.42-1.35 0.88-1.51 0 0zm-22.44-0.56c0.1-0.07-0.1-0.35 0 0zm-32.47 2.22c-3.94 1.23-2.01 1.56 1.16 3.25 3.58 1.6 6.27 8.78 0.72 8.62-3.08 1.02-6 2.41-8.63-0.87-0.05-3.85-4.76-3.31-7.03-2-0.36-4.55 0.42 0.81-1.63 2.03-2.42 4.7 4.79 7.82 8.47 8.22 3.48-0.59 6.97 1.16 5.5 4.93 4.07 4.53 11.62 3.08 17.13 4.16 2.97-0.97 8.24 4.63 9.65 0.09 0.44-2.68-1.66-7.76 2.94-7.28 3.16 1.91 3.84-2.98 2.88-4.34-3.1-1.16-5.8 1.04-7.01 3.36-2.15 1.27-4.82 1.11-7.12 2.36-2.5-1.63-3.86-3.89-6.22-1.41-3.26 0.48-11.04 1.6-9.25-3.69 1.4-0.94 7.92-1.61 4.82-4.31-2.65-2.71 1.32-4.62 3.31-5.75-3.58-1.68-4.56-8.29-9.69-7.37zm-32.25 1.15c-2.53 2.09-1.7 5.95 1.78 6.06 3.22 0.99 9.26 0.11 10.56-1.46-4.17-1.7-8.51-1.96-12.21-4.66h-0.07l-0.06 0.06zm136.38 3.13c0.83 5.51-4.86 8.8-9.75 7.53-3.5-0.76-4.93 1.17-7 3.25-3.53 0.99 1.57 2.52 0.78 3.59 1.25-1.04 0.67-4.28 4.72-4.25 2.79-1.53 5.76 0.86 8.21 0.16 2.25-1.99 2.36-5.46 3.19-8.03 2.43 2.54-1.36-1.8-0.15-2.25zm0.96 0.9c2.03 0.26 1.64-0.89 0 0zm0.88 0.07c-1.72-0.36-1.05 0.36 0 0zm4.66 0.21c-1.86 1.48 3.26-1.15 0 0zm-100.35 1.54c1.27-0.14-3.37-0.06 0 0zm79.56 0.93c0.05 2.91 1.04-2.98 0 0zm21.57 0.82c-0.42-1.97-0.7-1.58 0 0zm-6.63-1.1c4.47 2.21-0.8-1.83 0 0zm29.47 0c0.11 0.03-0.08-0.24 0 0zm-149.22 1.66c-1.17-1.85-1.97-1.15 0 0zm29.81 0c6.59 3.21-1.67-1.06 0 0zm6.63 0.37c-1.19 2.21-0.11 0.7 0 0zm-0.66 1.38c0.12-2.69-3.95 1.5 1.53 1.62 4.2 1.06-0.26-0.95-1.53-1.62zm104.88-1.28c-5.12 0.95-7.58 5.55-11.06 8.34-1.98 0.58-4.08 2.47-0.85 2.91 3.8 1.48 7.24-1.22 9.31-4.16 3.55 2.82 3.27 0.73 6.85-1.25 4.34-2.73-4.49-1.58-3.91-5.28-0.49-0.14 0.8-1.24-0.34-0.56zm-38.44 0.53c0.77-0.26-0.33-0.56 0 0zm0 0.15c-0.66 2.16 1.14-1.39 0 0zm-0.09 0.69c1.95 2.85 0.35-2.13 0 0zm2.53-0.34c0.61 1.21-0.45-2 0 0zm86.03 2c0.99-1.64 0.43 0.3 0.9 0.08-0.63 0.29 1.87 0.27-0.93 0.48-2.1-0.5-3.86 2.22-4.91 0.88-0.34 3.61 2.98 0.29 4.94-1.44zm-0.06 0.56c-0.04-0.15-0.45-0.02 0 0zm-167.1-0.53c-1.19 1.23 3.14-1.37 0 0zm-0.09 0.03c-1.12 0.1-0.12 0.24 0 0zm66.56 0.06c-5.03 3.34-5.56 11.64-3.09 17.03-0.41 3.13-1.55 5.54-4.81 6.38-1.9 2.49-5.85 0.25-2.88 3.75 1.7 2.9 0.36 7.46-1.37 8.69 1.42 3.1 5.41 1.91 7.28 3.62 0.46-2.79 3.97-4.84 6-6.97 3.02 0.94 6.02 2.93 9.31 1.07 2 1.92 1.04 3.47 0.19 4.93 0.58 3.53 5.84 3.12 7.5 0.69 3.83-1.11 4.64 6.09 8.74 3.64 5 1.3 10.24 3.22 14.98 5.17 2.39 3.19-0.95 5.46 0.06 5.08-3.26 1.16 0.04 5.9 1.65 7.02 1.73 2.73 5.36 4.63 8.57 5.09-0.01-5.27-4.62-9.15-9-11.28-2.17-5.25 5.09-3.6 7.59-5.72 5.37-0.37 10.61-2.68 15.63 0.19 2.87 0.03 4.38 1.9 6.12 3.25 2.03 0.33 4.51-0.34 6-1.28-5.57-1.69-11.32-4.39-16.69-4.97-6.22-1.68-13.95-0.46-19.47-5-6.7-0.43-13.72-5.7-20.59-2.91-3.23 3.33-4.7-1.27-6.69-3.15-2.7-2.5-6.18-4.51-9.97-4.29-3.56 1.17-3.88-4.88-0.38-3.85 3.52-1.25 5.33-5.03 9.35-5.9 3.3-3.13 7.29-1.54 11.28-1.96 2.85 3.18 0.1 4.57-2.65 5.31-3.31 1.09-2.01 4.97 0.81 5.75 3.88 2.03 9.5 1.18 11.28-2.53 2.33 1.08 6.55-2.79 2.56-3.75-3.22-2.72-10.75 0.82-9.56-5.35 1.53-0.67 5.45-1.57 2.9-3.37-2.66-2.41 4.59-5.23 2.66-5.72-5.84 0.13-10.61 3.54-14.53 7.37-6.28 2.67-14.76 8.35-20.9 2.38 2.27-4.65-2.76-5.9-1-9.94 3.76-1.14 6.71-3.48 9.22-5.69-0.9-3.42-2.13-0.79-4.82-2.18-0.34-0.31-0.77-0.74-1.28-0.6zm41.41 53.35c-0.07-0.04-0.1 0.19 0 0zm59.59-52.38c1.31-0.78 3.53-1.45 0 0zm-216.03-0.53c-5.36 1.33-3.6 9.16-0.12 12 1.44 3.38 6.44 2.4 5.62 6.94-1.33 1.59-5.77 0.71-5.91 2.84 3.02 3.69 8.69 4.42 12.72 2.06 2.96 2.52 7.43-1.09 7.28-3.87-3.74 2.53-7.29 0.1-10.5-2.5-1.5-4.51 3.35-6.28 5.75-9.19-2.68-1.44-5.98-3.24-5.18-6.5-3.79 0.66-6.25-1.4-9.66-1.78zm216.25 0.69c0.48 0.59 1.1-0.89 0 0zm-30.69 0.44c-2.83 0.06-6.58 0.95-8.53 2.43 3.52 0.12 6.87 2.24 9.75 3.5 2.11-1.73 4.16-3.59 6.5-5.03-2.51-0.74-5.08-1.03-7.72-0.9zm31.44 0.18c1.23 0 0.81 1.55-0.19 2.22-0.69-1.46-1.47-1.64 0.19-2.22zm-144 0.88c-2.15 0.71 3.3-0.5 0 0zm143.06 1.69c-1.17-2.42-0.93-2.55 0 0zm-1.75 0.71c-1.21-2.67-0.84-2.42 0 0zm-4.72-0.37c6.56-2.63-1.13 5.31 0.08 3.05 1.93 3.65-3.59-3.45-1.34-1.2 0.87-3.62-1.55-2.16-1.22-1.51-2.57 1.86-5.03 4.46-9.27 5.5-4.12-2.9 5.67-2.73 7.26-4.34 1.5-0.5 3-1 4.49-1.5zm-0.68 0.28c2.13-0.08-1.47-2.74 0 0zm0.31 2.03c0.03-0.16-0.16 0.03 0 0zm-76.91-0.81c2.32 0.4 4.34-0.62 0 0zm76.75 0.72c0.38 0.17-0.24-0.76 0 0zm-184.09 4.72c-3.08-0.39-4.01 2.9-1.84 4.72 2.53 3.05 6.63 5.61 10.71 4.56-4.2-0.88-4.82-8.48-8.87-9.28zm61.91 0.84c-3.1 0.27 0.43 0.99 0 0zm78.06 1c-3.08 0.83-6.44 2.75-8.28 5.38 1.13 3.5 6.73 2.62 9.06 0.43 3.14-0.28 6.62-1.93 9.5-0.9-1.38-1.52 3.97 1.51 5.37 2.12 3.78 5.2 5.87-2.43 9.56-0.61 1.64 1.36 2.84 4.44 1.51 6.46-3.09 2.77-6.4 5.08-10.63 4.59-2.2 1.17 1.6 4.31 2.78 5.25 2.14 1.05 3.99-2.47 7.28-1.75 4.64-0.42 9.05-1.54 13.25 0.84 3.23 1.27 6.12 0.36 8.69-1.78 0.82-0.92-7.13-0.48-9.65-1.15-4.67 0.95-8.15-7.32-2.66-8.29 1.93-1.7 2.98-4.72 6.25-3.25 3.43-0.18 7.5-0.39 9.31-3.53 3.15-4.83-3.77-0.12-6-0.25-4.5 2.01-8.55-0.34-12.44-2.15-7.28-1.68-15.02-0.05-21.59 3.28-3.73-0.77-6.58-5.42-11.31-4.69zm-155.53 1.28c0.72 0.06-0.39-0.88 0 0zm-0.03 0.69c1.07-0.82-0.8-0.86 0 0zm72.65 4.06c-3 1.6-6.27 1.97-9.62 0.5-0.48 5.04-8.82-0.53-8.94 5.16-0.65 1.52-5.21 0.27-1.91 1.37 1.92-0.25 5.59 2.69 8.85 1.1 3.85-0.63 7.6-4.22 10.87-0.69 1.69 0.71 8.02 3.73 5.63 0.41-0.85-3.47 0.74-7.15-3.91-7.79-0.33 0.1-0.65-0.19-0.97-0.06zm-32.56 2.35c-4.32 2.73-7.12 8.14-12.97 6.5-2.26 0.56-6.05-1.94-6.44 1.4-2.46 2.33-8.17-2.41-8.12 2.56-1.91 1.99-2.79 1.32-5.1 0.16-2.42 0.58-5.51 0.73-6.25-2.03-3.12-0.07-9.22 1.22-7.28 5.66 1.84 4.46 7.09 3.34 10.75 3.18 2.74 1.13 5.97-1.17 5.16-4.15 1.32-1.97 2.28-2.08 4.91-1.25 6.96 0.96 13.07-2.82 18.75-5.88 3.47-0.75 3.99 4.93 7.71 4.75 2.61 0.65 2.69 1.09 3.66 0.28 1.7 0.19 5.65-1.78 5.41-3.65-4.81 1.9-8.94-4.89-10.19-7.53zm51.41 0.9c1.67 1.59-0.14-0.36 0 0zm2 2.66c1.04 0.91-0.56-1.1 0 0zm-41.66 0.84c-0.49 0.33-1.49-1.3 0 0zm57.56 0.47c-3.83-1 1.84 3.58 0 0zm1.6 0.91c-1.52 4.36 1.81 1.04 0 0zm47.06-0.16c-2.9 1-6.79 0.87-9.16 2.88 1.12 2.75 4.18 6.32 6.85 4.18 2.29-1.67 7.37-1.7 4.5-4.84 1.66-1.88-0.76-2.41-2.19-2.22zm-115.31 6.78c0.63 0.13 0.16-1.42 0 0zm38.12 0.94c-4.21 2.65-0.97 10.64-6.56 11.84-2.03 1.96-1.74 5.37-2.91 7.5 6.37-3.45 11.3-10.15 12.75-17.03-0.92-0.97-1.86-2.24-3.28-2.31zm10.91 0.53c0.1 0.55 1.84-0.09 0 0zm60.87 1.09c0.85-0.52 0.02-2.16 0 0zm-60-0.84c1.2 0.55 0.27-0.32 0 0zm-20.84 0.13c-2.53 1.21-4.12 4.15-6.97 1.03-0.26-1.64-4.05 0.92-3.72 2.78-0.48 2.47 3.7 3.29 1.22 5.53 0.15 0.84 2.81-2.41 5.31-0.84 4.45 1.18 7.92-6.47 4.31-8.54l-0.15 0.04zm-8.94 10.03c2.16 1.01 0.99-3.29 0 0zm89.75-9.19c-0.56 1.46 1.29-1.58 0 0zm-116.34 0.41c-2.93-0.08-2.93 3.61-5.63 3.9-2.06 3.31-6.75 5.09-7.4 0.03-2.43-0.76-4.12 4.17-5.72 5.63-2.72 1.06-6.72-3.62-9.32-0.03-0.65 3.42-4.33 2.21-5.65 4.47-3.36 3.49-2.57 4.3 2.06 3.03 6.14-0.78 9.18-7.72 16-5.72 3.42 0.47 8.33 2.57 9.75-2.13 2.39-2.05 5.13 0.78 6.47 2.22 1.3 3.55-4.83 5.13-5.2 5.56 1.2 2.4-4.83 4.6-7.68 5.47-0.47 2 4.69 2.66 6.72 2.1 5.88-0.48 14.81-5.33 12.19-12.28-0.97-4.95 6.21-5.29 8.47-8.88 1.51-2.8-2.18 1.25-3.88-0.41-3.63-1.21-7.27-3.03-11.18-2.96zm70 3.06c-1.3 1.37-4.19 1.95-5.16 0.15-0.79 3.48 2.25 7.01 2.75 7.66-1.59 3.14 1.9-1.5 3.59 4.25 1.28 3.88 6.46 2.55 6.66 6.69 0.61 1.66 4.77 3.88 2.28 0.44-0.45-2.84-1.44-5.06-3.96-6.23-1.53-3.84-1.56-11.19-6.16-12.96zm85.78 2.25c-2.88 1.03 0.67 5.75 2.5 6.69 2.09 1.83 1.61-1.16 3.4-1.57-2.07-2.1-2.2-5.67-5.9-5.12zm-98 2c-0.84 3.12-5.32 3.58-3.06 7.12 0.35 3.34-0.29 6.81 0.37 10.07 5.01-3.76 5.46-12.56 2.69-17.19zm-31.63 2.37c0.35 0-0.12-0.34 0 0zm-1.25 0.03c-1.63-0.49-4.52 2.33-2.87 2.66 0.43-0.58 4.46-2.82 2.87-2.66zm62.85 0.13c1.31 3.65 3.48 9.1 8.31 7.78 3.19 1.46 0.21 3.74-0.19 5.34 2.04 2.21 5.17 3.42 4.56 7.04 0.7 5.59 6.43 10.2 11.91 9.75 2.11-2.7-0.63-8.52-3.41-11.41-5.14-3.54-6.65-10.31-12.43-13.44-2.66-1.88-6.34-3.66-8.75-5.06zm82.87 3.91c-3.49 0.1 5.25 3.14 1.44 0.78-0.47-0.2-0.91-0.91-1.44-0.78zm-158 0.43c1.01 0.87-0.48-0.79 0 0zm0.53 1.32c-0.01-1.76-1.16-1.66 0 0zm7.19-0.19c-0.34 0.58 2.67-2.01 0 0zm-25.09 0.56c2.07 2.62-0.49-1.84 0 0zm18.4-0.03c-4.52 3.45 5.46-0.29 0.32-0.5l-0.32 0.5zm79.63 4.5c-0.4 2.83 1.57-2.88 0 0zm42.47-0.41c-3.52 0.63-6.27 2.77-10.03 1.82-0.55 2.13 4.03 5.02 6.65 4.68 2.77 1.6 5.88 4.06 9.66 2.82 2.43-0.13 5.72-0.96 3.34-3.79-1.77-3.46-5.72-5.8-9.62-5.53zm-92.63 3.78c-2.24 0.28-6.39 1.26-7.03 3.13 4.31 2.88-1.09 6.36-2.66 8.56-1.45 4.06-7.45 1.71-9.4 5.81-4.32 0.24-4.28-5.38-2.1-7.4 2.68-0.9 5.17-4.31 6.16-5.81-3.08 2.39-6.83-4.4-5.62 2.75 0.73 3.63-5.32 2.49-3.44 6.62-0.41 2.48 4.12 4.54 1.37 5.88-1.47 2.3 6.55-0.1 2.47 5.9-4.01 1.4 0.18 9.54-5.06 9.28-2.81 0.03-6.07 0.97-7.59 3.5 2.78-3.59 6.42 1.7 3.25 3.35-1.25 1.91-2.28 6.59-1.66 7.53 3.91-1.79 9.54-6.09 6.36-10.77 0.16-4.7 6.78-3.53 7.64-8.2 1.87-4.15 4.24-9.04 9.12-10.13 4.28-4.71 7.13-10.8 8.79-17.06 1.14-1.43 2.66-3.69-0.6-2.94zm24.35 0.91c0.56 2.74-3.45 11.17-2.27 8.57 2.6-0.54 3.81 5.37 5.95 5.43 1.65-5.14-0.39-10.81-3.59-14.84l-0.09 0.84zm-86.07-0.31c-3.17 0.14-7.21 3.43-7.25 5.31 2.81-0.86 6.26-3.55 7.25-5.31zm30.25 0.15c-5.69 1.22-10.17 5.86-13.78 10.32-4.9-3.84-11.03 1.11-16.56 2.15-1.75 4.58-8.95 3.95-11.13 6.97 4.68 6.16 13.57 0.6 17.79-3.28 2.9-4.89 4.95-1.68 4.74-3.18-2.8-6.48 6.06 2.78 1.63-0.63-2.1-1.09-1.87 1.09 0.47 1.81 7.53-0.65 12.86-8.04 18.06-12.84 0.13-0.99-0.15-1.6-1.22-1.32zm-17.47 12.19c0.27 0.33 0.15-0.1 0 0zm61.47-10.31c0.07-0.79-0.04-3.14 0 0zm-87 1.41c-3.54 3.67 2.48 2.93 4.78 2.12-2.2 1.1-4.39-3.03-4.78-2.12zm86.57 0.15c-2.01 4.83-1.04 10.18-0.85 15.1 1.84 2.62 2.53-3.41 2.91-4.6 0.63-3.82 0.36-7.9-1.81-11.25l-0.25 0.75zm-57.19 3.22c3.51 2.68-1.49-4.2 0 0zm125.81 0.44c-3.51 1.06-3.5 7.53 1.09 6.22 6.12-1.62 5.67 7.02 10.38 9.09 1.3 1.78 6.15-0.26 3.28-2.25-4.36-4.58-10.59-7.46-13.78-12.87-0.3-0.22-0.59-0.28-0.97-0.19zm-71.53 0.28c1.41-0.11-1.62-0.39 0 0zm36.31 0.03c-2.82 1.28 1.01-0.23 0.69 0.25-0.61 0.01 0.58-0.82-0.69-0.25zm0.75 0.16c0.54-0.21-0.2-0.32 0 0zm-57.19 1.93c3.79 2.41-2.27-4.39 0 0zm58.97 0c0.36 3.07 4.27 6.57 5.38 9.54 4.3-2.28-0.77-7.32-3.19-9-0.79-0.45-4.39-3.5-2.19-0.54zm-40.34 1.29c2.11 0.54 1.47-0.79 0 0zm52.59 2.06c-0.71-0.59-3.67 3.34 0 0zm-34.09 2.97c1.61-0.94 1.29-2.14 0 0zm2.28-0.1c0.01 0.45 0.21-0.46 0 0zm7.47 0.35c0.23 3.35-2.29 8.42 0.72 9.43 0.84 2.49-2.36 5.41 1.37 6.19 1.5 1.21 4.28 1.82 3.69-1-0.21-5.46-2.38-10.74-5.69-15.06l-0.09 0.44zm-7.59-0.16c-0.07 0.85 0.27-0.36 0 0zm0.03 0.28c-0.14-1.1-0.62 1.81 0 0zm46.47 0.85c2.05 2.23-3.25 4.14 0.46 5.03 5.35 0.79 6.26 8.81 6.75 5.78 2.89 0.62 5.86 1.36 8.79 0.69-4.69-4.75-10.15-9-16.19-11.82l0.19 0.32zm6.09 12.43c1.39-2.63-2.34 1.66 0 0zm-52.91-12.59c-0.12 0.77 0.42-0.46 0 0zm-1.37 1.12c-3.73 4-4.6 10.22-1.47 14.75 0.78 2.49 3.33 5.44 5.78 5.41 2.41-7.08-4.14-13.26-4.22-20.12 0.02-0.08-0.08-0.09-0.09-0.04zm-76.88 0.16c-2.54-0.09-4.4 5.44-0.72 4.06 1.89-0.39 6.08 0.66 6.6-1.65-1.29-1.74-3.75-2.59-5.88-2.41zm21.72 0.72c-0.77 3.84-3.28 8.18-7.53 7.31-5.13 1.2-9.67 5.76-9.09 11.03-1.22 0.89-4.73-1.82-3.69 0.03-2.28 2.31-1.89 8.67 2.56 6.69 4.18-4.05 3.56-12.09 9.38-15.4 2.14-1.8 5.95 1.04 8.34-2.04 1.85-2.03 6.78-6.68 1.55-7.39-0.22 0.43-1.76-1.52-1.52-0.23zm-20.97 24.87c-0.1 0.04 0.05 0.06 0 0zm51.82-23.5c-2.56 3.03-5.48 7.44-9.94 7-1 2.5 2.51 5 2.62 7.75 1.89-5.39 7.15-9.56 7.75-15.28l-0.43 0.53zm49.5-0.21c0.24 0.54 0.21-1.03 0 0zm-0.57 3.15c-1.28 0.69 2.99-0.55 0 0zm-39.56 1.72c-3.14 1.6-0.96 6.14-2.84 8.06 1.52 2.39 2.79 7.55-0.97 8.25 1.28 4.25 2.51 9.02 2 13.28 4.31 3.42 1.11 10.52 2.4 14.69 7.04-6.29 4.6-17.74-0.45-24.46 1.67-5.95-0.88-12.87 0.61-19.07-0.01-0.44-0.14-1.08-0.75-0.75zm-66.34 6.34c-0.4 0.43 0.34 0.21 0 0zm122.62 0.79c-0.43 3.65-1.42 8.07 2.47 10.4 1.71 1.65 6.67 2.98 5.47-1.06-0.79-4.21-4.55-7.4-8-9.88l0.06 0.54zm-45.9 0c-2.35 2.56 5.24-1.23 0 0zm43.93 1.9c3.34 0.9-2.15-1.68 0 0zm-112.22 0.22c2.73 0.01-3.06-1.13 0 0zm112.94 0.63c3.59 0.38-3.12-2.07 0 0zm0.35 0.4c1.8 0.76-1.03-1.09 0 0zm-15.63 1.22c0.5 2.37 1.35 4.99 3.13 6.69-1.27-1.92-2.78-5.4-3.13-6.69zm-24.66-0.03c-1.04 0.82 1.41-0.44 0 0zm-1.21 0.16c0.88 0.72 1.88-0.96 0 0zm-72.1 0.09c-1.86 1.28 3.52-1.12 0 0zm32.75 3.25c-2.8 1.45-5.4 5.03-5.47 8 2.44-0.97 5.21 3.5 4.94-0.75-0.17-2.48 0.86-4.99 0.53-7.25zm8.35 1.53c-0.25-1.23-2.11-2.41 0 0zm46.59-0.5c-4.67 0.87-4 6.95-0.25 8.38 3.26 2.79 3.61 8.51 5.87 11.03 6.23-1.98 3.69-10.52-0.75-12.91-2.94-1.07-4.1-3.25-4.12-6.19-0.11-0.32-0.44-0.39-0.75-0.31zm-43.38 0.31c-4.68-0.14-1.63 6.59 1.69 7.19 2.75 0.78-0.42-5.3-0.34-7.19-0.44-0.04-0.9-0.05-1.35 0zm57.6 3.47c0.87 1.6 1.65 5.78 3.84 5.56-0.89-1.39-4.09-6.61-3.84-5.56zm-28.25 3.35c0.29 1.68 1.95 2.91 0.25 0.37l-0.25-0.47v0.1zm1 1.96c-0.11 0.04 0.04 0.06 0 0zm-26.38 0.29c0.42 0.21 0.06-0.99 0 0zm-0.22 0.56c0.47 1.47 0.49-1.85 0 0zm0.32 0.75c0.46-0.5-0.67-0.45 0 0zm28.5 0.97c-1.04 1.62 2.44-1.1 0 0zm-29.53 0c-5.01 0.04-2.54 4.85-2.91 7.81 2.81-1.28 3.12-5.97 2.91-7.81zm26.65 1.93c-5.54-2.27-5.61 7.76-1.75 8.47 3.75-0.94 6.91-6.85 2.53-8.87-0.83-0.73-1.19-1.09-0.78 0.4zm-44.59-0.43c-1.24 0.23-4.59 3.02-2.19 2.59 0.81-0.35 2.57-2.65 2.19-2.59z"/>
      </g>
      <path id="path28126" filter="url(#filter18215)" transform="matrix(.49101 0 0 .49101 68.743 264.73)" fill="url(#radialGradient19461)" d="m758.24 156.32c-2.37 1.74 6.47 87.51 7.87 89.44 1.39 1.89 7.95 1.37 10.6 0.47 2.45-0.84 47.26-79.77 46.04-82.45-7.25-10.68-27.15-10.41-32.39-11.24-10.51-0.39-22.67-1.44-32.12 3.78zm-56.6 34.94c1.95 3.29 55.69 55.96 56.73 56.93 0.95 0.88 4.96 0.08 5.75-2.1 0.73-2.02-10.94-87.51-11.01-88.32-18.83-0.39-45.36 13.74-51.47 33.49zm123.52-24.97c-1.73-0.4-36.9 63.62-44.92 81.69-0.45 3.73 2.54 5.12 4.65 4.28 1.9-0.76 72.56-55.95 72.9-57.04-0.67-11.69-22.66-29.55-32.63-28.93zm-125.34 27.04c-19.88 10.95-34.92 53.03-29.79 75.01 1.92 3.06 78.93-9.52 81.58-10.71 2.59-1.15 6.07-6.15 5.38-8.59-0.71-2.5-56.26-55.31-57.17-55.71zm161.48 4.07c-2.21-1.92-75.47 55.94-75.75 56.67-0.27 0.71 0.05 2.54 1.81 3.16 2.57 0.9 88.47-25.53 88.76-26.27 4.33-11.03-6.54-33.17-14.82-33.56zm13.78 37.08c-1.05-0.56-86.83 23.12-88.78 24.65-1.07 0.84-2.29 5.06-1.28 6.91 1.12 2.06 76.46 41.22 77.54 40.58 9.77-5.71 16.84-20.02 17.52-25.3 0.66-5.14 1-10.39 1-15.72-0.8-9.25 1.12-24.54-6-31.12zm-205.84 39c-0.48 19.62 7.1 45.66 22.71 58.57 0.97-0.51 59.11-55.26 64.47-63.23 1.45-2.15-3.79-8.19-4.71-8.28-0.93-0.1-81.84 9.72-82.47 12.94zm115.34-4.41c-0.28 0-0.61 0-0.97 0.03-2.9 0.68-6.99 1.21-7.47 4.22-0.5 3.16 39.72 83.64 41.84 83.28 18.85-6.07 44.83-26.59 42.21-48.46-0.26-0.8-61.16-31.69-73.08-38.63-0.11 0.19-0.53-0.42-2.53-0.44zm-25.26 0.75c-1.55 0.1-63.84 63.85-64.33 65.12 5.26 16.74 33.37 36.67 52.08 33.09 0.63-4.65 17.25-94.48 15.57-96.02-1.61-1.49-1.77-2.29-3.32-2.19zm14.42 3.19c-1.63-1.36-5.54-2.06-7.32 0.03-1.83 2.16-17.29 95.19-14.62 96.84 16.88 8.47 48.79 4.1 61.56-10.66-0.34 0.13-38.06-84.91-39.62-86.21z"/>
      <g id="g28128" transform="matrix(.49101 0 0 .49101 244.79 575.52)">
        <path id="path28130" fill-opacity=".98039" fill="#e2e100" d="m400.31-476.89c-2.37 1.73 6.47 87.51 7.87 89.43 1.39 1.9 7.95 1.38 10.6 0.47 2.45-0.83 47.26-79.76 46.04-82.44-7.25-10.68-27.15-10.41-32.39-11.24-10.51-0.4-22.67-1.44-32.12 3.78zm-56.6 34.94c1.95 3.29 55.69 55.96 56.73 56.93 0.95 0.88 4.96 0.08 5.75-2.1 0.73-2.02-10.93-87.51-11.01-88.32-18.82-0.39-45.36 13.74-51.47 33.49zm123.53-24.97c-1.74-0.4-36.91 63.62-44.93 81.68-0.45 3.74 2.54 5.13 4.65 4.28 1.9-0.75 72.56-55.94 72.9-57.03-0.67-11.69-22.66-29.55-32.62-28.93zm-125.35 27.04c-19.88 10.95-34.92 53.02-29.78 75.01 1.91 3.06 78.92-9.52 81.57-10.71 2.59-1.16 6.07-6.15 5.38-8.59-0.71-2.5-56.26-55.31-57.17-55.71zm161.49 4.07c-2.21-1.93-75.48 55.94-75.76 56.67-0.26 0.7 0.06 2.53 1.81 3.15 2.57 0.91 88.47-25.52 88.76-26.26 4.34-11.03-6.54-33.17-14.81-33.56zm13.77 37.08c-1.04-0.56-86.83 23.12-88.78 24.65-1.07 0.84-2.29 5.06-1.28 6.91 1.12 2.06 76.46 41.22 77.54 40.58 9.77-5.71 16.85-20.03 17.52-25.3 0.66-5.14 1-10.39 1-15.72-0.8-9.25 1.12-24.54-6-31.12zm-205.84 38.99c-0.48 19.62 7.11 45.67 22.71 58.58 0.98-0.51 59.11-55.26 64.48-63.23 1.44-2.15-3.8-8.19-4.72-8.28-0.92-0.1-81.83 9.72-82.47 12.93zm115.34-4.4c-0.28-0.01-0.61 0-0.97 0.03-2.9 0.68-6.98 1.21-7.47 4.22-0.5 3.16 39.72 83.64 41.84 83.28 18.85-6.07 44.83-26.59 42.21-48.46-0.26-0.81-61.16-31.69-73.08-38.64-0.11 0.19-0.52-0.42-2.53-0.43zm-25.26 0.75c-1.55 0.1-63.84 63.85-64.33 65.12 5.26 16.74 33.37 36.67 52.09 33.09 0.63-4.65 17.24-94.48 15.56-96.03-1.61-1.48-1.77-2.28-3.32-2.18zm14.42 3.18c-1.63-1.35-5.54-2.05-7.31 0.04-1.84 2.16-17.3 95.19-14.63 96.84 16.88 8.46 48.79 4.1 61.56-10.66-0.33 0.13-38.06-84.91-39.62-86.22z"/>
        <path id="path28132" fill="url(#radialGradient19463)" d="m400.31-476.89c-2.37 1.73 6.47 87.51 7.87 89.43 1.39 1.9 7.95 1.38 10.6 0.47 2.45-0.83 47.26-79.76 46.04-82.44-7.25-10.68-27.15-10.41-32.39-11.24-10.51-0.4-22.67-1.44-32.12 3.78zm-56.6 34.94c1.95 3.29 55.69 55.96 56.73 56.93 0.95 0.88 4.96 0.08 5.75-2.1 0.73-2.02-10.93-87.51-11.01-88.32-18.82-0.39-45.36 13.74-51.47 33.49zm123.53-24.97c-1.74-0.4-36.91 63.62-44.93 81.68-0.45 3.74 2.54 5.13 4.65 4.28 1.9-0.75 72.56-55.94 72.9-57.03-0.67-11.69-22.66-29.55-32.62-28.93zm-125.35 27.04c-19.88 10.95-34.92 53.02-29.78 75.01 1.91 3.06 78.92-9.52 81.57-10.71 2.59-1.16 6.07-6.15 5.38-8.59-0.71-2.5-56.26-55.31-57.17-55.71zm161.49 4.07c-2.21-1.93-75.48 55.94-75.76 56.67-0.26 0.7 0.06 2.53 1.81 3.15 2.57 0.91 88.47-25.52 88.76-26.26 4.34-11.03-6.54-33.17-14.81-33.56zm13.77 37.08c-1.04-0.56-86.83 23.12-88.78 24.65-1.07 0.84-2.29 5.06-1.28 6.91 1.12 2.06 76.46 41.22 77.54 40.58 9.77-5.71 16.85-20.03 17.52-25.3 0.66-5.14 1-10.39 1-15.72-0.8-9.25 1.12-24.54-6-31.12zm-205.84 38.99c-0.48 19.62 7.11 45.67 22.71 58.58 0.98-0.51 59.11-55.26 64.48-63.23 1.44-2.15-3.8-8.19-4.72-8.28-0.92-0.1-81.83 9.72-82.47 12.93zm115.34-4.4c-0.28-0.01-0.61 0-0.97 0.03-2.9 0.68-6.98 1.21-7.47 4.22-0.5 3.16 39.72 83.64 41.84 83.28 18.85-6.07 44.83-26.59 42.21-48.46-0.26-0.81-61.16-31.69-73.08-38.64-0.11 0.19-0.52-0.42-2.53-0.43zm-25.26 0.75c-1.55 0.1-63.84 63.85-64.33 65.12 5.26 16.74 33.37 36.67 52.09 33.09 0.63-4.65 17.24-94.48 15.56-96.03-1.61-1.48-1.77-2.28-3.32-2.18zm14.42 3.18c-1.63-1.35-5.54-2.05-7.31 0.04-1.84 2.16-17.3 95.19-14.63 96.84 16.88 8.46 48.79 4.1 61.56-10.66-0.33 0.13-38.06-84.91-39.62-86.22z"/>
      </g>
      <path id="path28134" opacity=".94186" d="m-314.29-484.78a22.857 15.714 0 1 1 -45.71 0 22.857 15.714 0 1 1 45.71 0z" fill-opacity=".98039" transform="matrix(.27840 .11468 -.11678 .27340 471.46 556.96)" filter="url(#filter18360)" fill="#d1b38e"/>
      <g id="g28136" clip-path="url(#clipPath4694)" transform="matrix(.49101 0 0 .49101 632.66 685.99)" fill-opacity=".92157">
        <path id="path28138" filter="url(#filter4669)" fill="#d9ff34" d="m-376.81-580.99c5.8-10.65-17.97-19.39-13.07-6.76 10.21 10.56 14.59-14.59 27.34-4.57 7.74 9.03-9.16 26.17-16.06 12.61-0.99-1.8-1.46-3.86-1.51-5.9m-4.02-9.67c7.07-0.83 12.95 3.56 4.89 7.39-5.82 9.46-33.69-0.01-19.88-9.12 6.35-3.3 11.3 7.53 15.54 4.83m7.61-15.12c-2.51 4.06 3.96 21.16 2.48 10.15-5.5-2.37-21.41-10.89-10.13-15.27 5.15 1 6.94 7.67 12.41 8.01m8.91 1.61c-1.13 3.88-8.67 15.4-6.62 4.45-4.97-7.05 3.41-28.22 10.19-13.92 2.01 5.06-4.89 5.72-7.7 7.67m11.79 15.31c-8.49 8.48-22.53-8.63-10.34-9.21 7.46 8.37 20.97-7.67 23.79-1.4 0.56 5.58-22.46 11.82-8.02 8.99m-7.62 12.18c-6.25 0.03-17.27-10.55-4.25-7.81 10.01-3.9 26.92 14.72 9.68 14.46-3.26-0.95-5.94-5.69-1.62-7.49m-14.05 12.99c-4.64-0.7-4.69-16.65 1.04-8.26 7.36-10.03 16.17 23.05 5.28 16.62-2.46-2.03-5.41-7.09-6.78-8.18m-20.8 0.9c5.2-0.13 16.24-4.95 8.29-10.18 12.55 0.84 9.26 26.77 0.11 23.45-1.92-5.13 2.96-20.11-7.91-11.63m-6.15-1.79c-0.4-7.26 1.89-24.06 11.03-12.19-2.11 7.7-7.62 16.83-16.83 20.17-0.08-3.88 1.07-15.05 7.3-12.42m-10.23-7.53c10.65-12.06 12.4 11.64-0.49 8.9-10.3-1.32-9.17-12.91 1.12-12.04m-6-17.26c3.85 3.06 23.73 2.13 10.36 6.79-4.35 6.79-25.2 9.98-18.41-2.36 5.5-3.86 17.66 1.28 6.54 6.23m2.75-12.74c4.72 0.07 22.77-10.5 15.86-0.12-8.14 0.76-16.66-7.04-23.77-3.92-5.83-10.87 12.51-12.32 11.14-3.65l-0.92-1.6-0.88-1.32m11.63-9.69c9.27-0.67 11.63 17.63 1.37 9.27-5.66-4.11-24.01-13.81-13.29-19.92 3.19-0.7 21.54 11.63 11.51 11.45m14.87-6.26c4.14 5.95 2.03 16.19-4.62 6.99-5.36-3.85-14.26-17.72-8.13-20.25 1.95 5.97 15.05 13.48 14.87 9.28-1.6 0.16-3.23 0.07-4.8 0.52m16.58 1.89c1.55 10.58-9.36 10.74-8.91 0.09-2.94-8.34 9.2-24.94 12.3-9.75 1.42 3.5 3.32 13.84-3.8 10.77m15.36 5.9c-13.43-7.56-2.45 15.2-5.81 12.67-9.41-9.21-3.64-30.06 11.03-27.99-1.14-4.26-6.88 6.31-4.14 11 0.33 3.77 0.56 13-4.79 5.14m12.4 8.36c3.28 9.95-22.31 0.54-9.64-3.89 2.15-7.34 15.11 2.2 14.63-8.83 5.39-15.73 6.43 14.61-2.92 12.83-3.2-2.03-6.17-0.13-9.57 0.36m20.21 10.73c-4.32 8.17-27.04 7.27-14.15-3.09 3.27-5.18 23.77-8.7 13.03-0.31-3.83 3.81-9.68 11.08-5.85 0m5.08 19.73c-9.51 4.52-22.26-6.44-7.91-10.82 6.97-3.48 24.68 2.55 11.25 8.74-4.59-2.7-0.54-8.61-1.25-0.4 0.27 0.97 0.33 1.98 0.49 2.98m-5.64 7.88c-4.23 15.31-19.2-6.04-3.96-5.04 7.37 0.18 28.25 6.48 16.12 14.34-6.37-0.08-11.86-4.1-18.05-5.06m-0.29 13.66c-5.79-2.51-12.65-19.31-1.25-10.34 7.16 2.55 19.21 13.81 14.35 19.69-4.43-0.06-17.74-5.5-10.03-10.05-2.03-0.32-4.06 0.4-6.08-0.03m-9.04 9.47c-6.33-3.05-9.56-20.72 0.05-11.97-0.16 5.65 8.43 18.26 8.12 16.86-1.36-0.81-15.72-14.89-11.05-6.68m-15.36 6.02c4.66-4.89 1.2-23.84 7.14-9.19 5.69 4.53 5.39 25.36-3.38 12.61-3.84-6.27-2.6-6.62-0.26 0.93m-14.67-3.99c1.62-4.52 2.58-15.4 6.51-5.57 3.76 5.02-0.1 25.16-6.08 14.94-0.02-4.06 1.88-13.96-5.55-11.38m-10.24-2.53c-10.88-4.44 18.61-13.58 9.13-1.31-1.86 6.87-8.26 24.86-15.86 12.22 0-3.73 10.27-18.42 4.12-7.47m-7.22-5.71c3.85-3.3 10.42-20.78 8.72-6.93-2.66 5.9-10.37 18.89-15.59 15.34 1.99-3.21-0.41-10.2 3.31-11.07m-3.05-10.63c-2.52-7.95 15.3-7.4 5.36-1.08-3.65 3.41-23.68 13.88-13.54 2.82 1.98-3.13 6.92-8.53 2.94-1.27m-6.07-17.02c3.04 3.38 19.83 5.59 9.86 5.48-5.59 8.28-26.09 17.35-23.03-0.18 0.95-12.41 28.16 6.94 13.49-5.07m-5.15-17.47c1.6 4.51 8.85 16.71 12 6.84 4.91 13.81-15.76 13.51-17.01 5.82-13.41 2.86 8.4-14.43 9.35-11.61-0.92 2.09-2.13 4.04-3.23 6.03m7.14-16.51c10.86-8.03 15.09 18.21 1.07 10.07-6.68-1.08-28.45-0.26-20.27-11.06 3.95-1.89 18.78 3.43 10.42-5.73m8.21-6.94c4.46 2.42 19.44 8.33 5.75 7.96-5.52-1.7-20.4-9.46-17.66-10.92 4.99 1.4 10.14 2.67 14.53 5.52m-0.84-11.6c3.79 2.66 23.58 8.35 12.83 11.71-7.88-1.98-15.69-16.19-14.7-19.32 1.69 6.9 21.68 4.86 15.65 8.64m3.27-9.34c12.01-4.8 12.09 18.97 2.15 10.02 2.34-7.14-17-16.02-7.25-18.42 3.26 2.99 13.37 3.63 10 0.99l1.32 1.09m14.03 0.55c-1.48 5.88 0.95 14.05-7.1 8.99-14.06 0.59-14.36-30.53 0.05-17.77 1.84 1.78 3.34 3.86 4.79 5.95m16.29-1.67c-10.54-0.15-6.08 19.75-6.61 2.32-12.63 6.61-4.09-23.35 0.85-10.24-3.75 6.12 5.63 6.03 3.25 7.94m14.49 2.63c1 6.84-11.48 19.06-8.35 4.94-1.52-6.56 1.66-28.11 9.65-14.87 0.45 4.2-2.45 8.87 0.49 12.67m14.49-0.76c3.28 12.18-19.57 17.02-14.45 1.79 0.69-7.63 26.05-18.46 11.47-2.11m14.75 16.57c-5.14-6.6-19.19 3.6-9.66-5.01 3.16-6.3 9.82-20.1 13.07-6.54 6.22 13.68-12.11-4.89-6.02 8.71m11.74 9.72c-5.27 0.87-21.21 1.92-8.41-3.93 6.73-4.91-7.15-6.55 3.16-8.44 7.76-1.77 12.05 7.72 2.12 8.47-1.55 0.91-2.89 2.37-3.26 4.18m8.52 14.13c-5.87 5.2-18.22-1.55-6.48-5.6 3.34-8.2 22.36-14.13 18.24-0.59-1.22 2.54-16.09 10.36-7.74 2.13m2.52 14.49c-5.27 9.47-21.79 0.77-7.72-5.42 6.5-7.33 24.78 6.31 9.79 6.88-2.1 0.35-4.21 0.73-6.21 1.47m4.42 17.68c-8.12-1.79-19.54-11.88-4.79-12.98 3.15-2.21 11.19-1.65 8.01 3.97 7.37-1.76 9.16 4 0.82 2.69-4.37 1.66-10.41 7.28-13.55 0.52m-2.39 18.78c0.06-4.69-11.65-16.26 1.9-14.1 5.87 4.63 13.42 3.68 18.8 4.44 10.65 7.85-18.48 6.55-9.84 7.81m-8.8 11.39c-7.5-4.12-5.88-15.52 3.1-8.45 7.28 2.77 13.04 19.29 0.04 11.49-2.14-0.95-5.04-2.85-3.99-5.65m-4.94 18.29c-11.85-3.02-11.83-26.58 1.85-14.98 9.39 7.44 9.43 25.39-7.6 11.24m-6.49 9.17c0.6-5.53-16.49-19.43-4.78-15.72 5.57 2.08 16.18 11.62 6.47 15.58 4.83 4.52 4.98 10.9-0.6 3.38-1.72-2.34-3.26-5.83-6.65-5.84m-13.14 9.01c1.2-4.33-0.55-22.64 6.23-11.33 4.32 5.79 9.31 25.02-3.76 15.78-3.63 0.4 0.11-4.57-0.56-6.21m-12.41 5.02c-4.85-6.76 7.02-24.98 6.8-8.97 5.85 7.65 7.09 27.13-5.02 13.55-2.12-6.33-4.08-10.74-7.78-1.68m-8.37-3.29c-1.75-9.26 9.56-11.34 5.71-1.06 0.48 4.42 3.25 21.13-4.88 14.21-1.31-2.85 1.28-13.31-5.07-9.27m-12.34-9.85c6.51 4.34 14.06-18.72 13.35-2.86-3.26 7.28-10.11 13.54-9.39 22.14-1.42-5.27-2.17-11.1-5.85-15.38m-12.28-8.54c2.52-11.03 17.47-12.01 16.49 0.84-10.18 1-6.99 15.54-17.1 14.5-1.98-1.98-1.34-13.48 3.13-12.75m-1.19-3.26c-7.25-2.48-5.51-17.22 0.56-9.64 2.86 8.91-8.37 26.63-15.25 18.14 2.51-3.89 10.1-11.09 2.41-14.05m-12.17-5.17c2.12-5.72 19.01-17.04 17.58-6.34-5.11 5.22-17.62 18.08-22.58 12.46 1.79-3.89 6.04-7.43 7.96-10.47m-6.97-11.58c5.14-6.25 19.56-12.93 15.04 1.21-3.35 7.71-22.6 12.28-23.11 3.13 2.76-1.98 6.67-2.01 9-4.62m-2.23-13.56c8-8.33 6.28 14.48-3.86 10.46-6.41-1.88-16.04 1.9-7.96-5.97 2.27-4.04 7.97-11.02 9.56-1.94m-3.82-17.59c4.22 1.84 19.08-1.79 9.28 5.51-5.83 4.99-26.67 8.78-19.27-3.23 0.86-0.86 11.03 1.9 5.65-0.82m6.48-8.24c5-0.65 13.84-2.42 4.68 0.74-7.33 11.49-28.45-8.82-12.81-10.13l2.06 0.54m10.13-11.49c7.38-5.75 18.79 4.81 5.48 7.21-10.44 8.43-31.88-5.11-14.85-12.79 1.78-0.02 7.18 0.4 6.01 3.37m0.82-6.99c7.08-14.55 23.65 11.54 8.76 8.52-2.38-10.04-14.1-7.63-19.27-11.32-0.53-9 8.6-8.15 10.23-1.04 2.1 1.14 4.75 1.02 6.81-0.12m8.28-11.69c9.44-1.14 11.57 14.51 0.08 9.02-7.55-1.67-18.93-11.46-11.19-19.02-7.42 4.81 11.61 17.62 6.18 11.07m11.11-11.38c12.93-4.51 9.31 23.29 0.11 9.48-2.32-5.3-2.05-12.4-8.53-12.92-1.11-4.74 16.61-7.05 12.39-1.48m9.56-6.33c5.43 4.25 13.87 21.68-0.1 13.8-9.45-2.46-12.35-25.76 0.3-15.4 2.63 3.52 0.29 7.64-2.94 2.32m20.67-2.44c6.34 5.95 1.32 24.6-5.92 10.65-3.17-7.07-15.04-17.39-4.95-22.62-1.64 6.64 3.49 17.93 10.89 10.02m11.59-4.75c9.58 5.44-3.68 25.17-6.01 8.58-5.36-6.34-1.45-23.36 7.47-13.81-3.13 6.65-4.91 6.63 2.65 10.52m9.98-3.36c5.66 8.37-7.45 19.28-8.6 5.42-9.57-7.46 9.88-27.04 10.78-10.41 0.71 2.62-1.68 5.52-4.44 3.87m15.24 4.24c9.34 5.46-9.91 18.5-4.23 5.83 8.06-6.02 3.36-12.28-3.87-15.38-2.96-13.94 24.21 6.53 8.01 5.99l-0.4 0.13m17 7.63c-6.56 0.14-4.84 18.77-9.96 7.39-12.58-7.53 17.26-24.39 8.22-9.42-0.33 2.64-3.12 3.07-2.91-0.27m19.61 10.89c-0.97 9.27-21.52 10.73-10.91-0.28-0.72-6.41 9.19-22.41 11.98-9.03-1.87 3.45-4.47 6.43-6.37 9.86m13.1 3.25c2.91 12.53-22.91 21.14-13.63 3.96 2.07-10.44 27.96-13.69 16.77-1.23-1.12 0.79-2.73 2.26-2.19 3.89m11.73 5.46c-0.91 7.5-23.04 13.18-12.1 2.42 4.52-3.11 12.2-17.03 16.3-9.83-1.3 3.1-4.44 10.72-8.87 7.26m7.82 18.57c-3.82-0.43-20.74 0.61-9.65 3.13 7.92-2.73 15.78-29.5 22.57-12.91 0.29 8.09-8.49 10.82-11.83 4.09-4.28 0.37-6.52 4.77-10.32 6.22m14.71 13.91c-4.51-3.55-13.33-7.37-16.9-0.66 3.47-11.31 19.73-12.28 28.64-7.2-6.29 1.23-9.75 7.31-15.44 9.64m0.62 13.92c-1.98-5.64-18.27-6.3-5.57-10.91 8.76-4.53 32.4-5.51 25.02 9.72-5.42 4.61-20.82-1.14-10.07-7.74m-4.2 22.58c-7.53 1.09-17.38-12.63-4.21-10.76 5.58-3.56 11.82-11.48 15.24-1.06 6.36 10.88-6.59 6.87-12.56 9.39l-1.2-0.72m0.91 15.34c-5.08-1.3-19.29-3.77-7.36-8.16 5.48 1.17 18.79 7.5 18.87 4.58-2.88 6.29-19.01 8.63-12.29-1.36m-4.12 16.03c-5.58 9.68-22.55-8.82-6.68-5.57 8.38-6.07 19.01 1.77 18.33 9.4-4.19 2-12.57 3.6-15.38-1.06m-7.1 11.31c-13.53 1.42-2.62-18.59 2.79-6.08 3.65 4.13 21.83 13.38 7.79 16.13-4.28-1.9-7.03-6.08-8.73-10.28m-15.45 5.17c14.87-2.03-15.67-9.03-1.41-8.05 10.23 2.52 18.47 8.57 25.68 16 0.41 6.68-24.51-1.55-13.13-0.35m-14.66 7.74c2.79-6.58-6.62-17.3-7.04-11.54 7.97 3.38 22.82 12.01 18.86 21.44-5.46 2.76-13.58-4.27-11.66-10.11m-10.91 10.1c-5.97-1.84-8.15-20.44-1.81-15.34-1.42 8.4 7.72 16.97 8.65 20.59-7.3 9.84-12.46-24.25-7.77-6.71m-16.54 4.37c-6.08-6.57 8.18-15.14 6.82-4.26 9.42 3.76 12.74 16.64 0.96 18.78-3.24-8.4-4.93-19.63-15.79-8.71m0.02-1.58c-9.57-0.97 0.13-24.98-3.45-10.38 4.92 7.4 12.05 18.44-0.31 23-5.05-0.63-6.09-10.97-1.32-12.79m-17.65 3.98c5.51-5.61-7.07-24.36 3.1-15.63 9.73 6.41 12.96 23.27 2.98 30.72-5.83 3.77 1.17-21.04-6.13-14m-6.44-6.75c-8.13-2.11-10.11-13.28 0.66-11.3 1.67 6.1 5.72 22.51-4.53 23.46-1.16-2.22 1.41-13.1-4.01-8.95m-13.17-2.82c-3.46-7.92 12.86-21.86 8.67-6.28 1.15 6-7.42 20.72-10.46 10.6 3.37-2.65 11.13-5.89 1.93-5.52m-14.09-9.11c-3.34-9.78 19.3-12.22 11.79-3.37 6.2 8.21-13.72 16.36-11.93 13.84 2.88-4.26 0.8-11.19 6.38-13.72m-17.9-1.71c-2.77-8.46 18.57-17.87 11.99-6.34-6.89 3.5-6.28 12.76-9.99 15.98-12.23 4.73-7.19-14.41-1.89-10.2l-0.65 1.13m-7.91-14.5c0.71-13.02 22.24-0.4 7.96 2.33-7.6-2.54-3.65 19.41-10.08 6.92 1.98-3.92 15.98-7.41 4.32-6.9-1.77 0.06-3.55 0.17-5.32 0.15m-5.16-13.51c4.41-1.54 24.35-9.05 14.07 1.09-4.77 8.64-21.26 18.71-26.39 6.66 3.03-3.37 8.67-3.26 11.68-6.22m-6.36-8.87c1.93-7.94 25.27-7.72 10.09-2.24-4.25 5.4-11.66 7.76-16.43 6.29-9.22 11.36 7.53-21.61 4.49-4.95m-1.77-16.36c2.72-10.39 19.96-0.57 7.03 4.28-2.99 5.17-19.64 5.78-17.71 2.71 6.28 0.47 13.21-20.02 4.94-7.94m3.07-15.41c10.85-6.44 13.23 13.07 0.3 9.22-11.04 3.96-17.36-11.71-3.93-12.19 5.52-1.83 5.15 4.2 2.67 6.99m4.65-15.79c11.6-7.05 4.13 11.34-3.9 6.31-6.35 5.36-23.21-5.61-9.01-7.83 0.77-0.15 12.02-6.75 7.23-2.21m-0.76-15.02c0.88 4.61 18.15 11.57 10.24 6-6.59 5-14.84 17.44-22.16 5.25-6.43-6.23-1.63-18.6 7.68-12.3 2.9-0.09 11.65-0.39 4.98 4.3m1.36-15.06c5.16-2.39 22.38 7.73 9.32 5.55-7.44 3.99-23.18 1.24-13.78-8.97 3.94 0.41 6.62 3.82 9.8 5.8m6.19-19.26c-5.09 7.01 11.42 15.08-0.34 10.1-7.84-3.08-11.31 0.72-15.49-6.78-4.03 8.16 26.84 6.64 11.55-2.16m8.53-12.94c5.44 3.91 14.33 17.04 0.51 12.64-6.28-0.79-18.33-19.75-5.36-14.2 2.49 1.5 4.79 3.29 7.19 4.93m8.93-11.22c14.88-3.29 1.98 22.27-4.3 7.16-3.47-5.14-14.26-3.65-8.43-11.98 3.53-2.06 12.17 1.19 12.15 4.8m11.75-10.71c6.54 4.05 7.86 16.32-2.8 11.53-11.6-3.33-13.06-25.11 2.4-19.39 6.67 1.75-6.88 13.57 3.43 7.77m10.83-8.05c1.29 3.73 5.91 16.28-1.73 8.15-4.38 0.48-11.23 5.62-7.76-2.83-1.3-5.41-0.31-22.03 4.91-8.65 0.37 1.37 1.36 3.47 3.15 2.99m12.45-5.05c8.51 6.76-1.79 19.64-5.71 5.66-4.5-4.78-9.76-19.73 1.85-11.29 2.35 1.66 4.42 4.03 4.85 6.97m11.49-1.33c11.67 5.69-2.6 15-6.1 4.15-4.63-7.07 2.7-22.55 8.18-9.32 1.25 2.04 3.05 7.08 0.5 1.63m15.3-1.81c-2.91 5.32-7.34 13.61-6.46 18.51-4.43-10.61-3.27-21.09 0.15-31.11 4.79-8.3 9.6 14.78 3.04 16.4m14.34 0.69c3.09 12.32-14.04 3.84-5.47-3.2-2.4-6.4 6.58-19.83 6.86-6.11-0.03 2.36-0.46 4.68-0.76 7.01m17.66 7.31c-10.03 12.41-20.66-4.78-9.67-12.96 8.53-7.48 15.8 9.49 3.38 9.57m18.43 2.32c-1.28 4.04-9.39 15.52-6.4 4.27 10.06-7.45-17.57-16.46 0.21-16.76 7.84-0.96 5.93 7.79 6.21 12.57m16.28 1.53c-3.44 4.78-12.08 25.71-15.2 10.9-1.1-9.35 7.64-18.2 14.76-21.02 0.22 5.87-3.39 11.3-3.5 17.17m15.1 3.89c-0.16 10.08-19.49 14.45-12.14 0.84 0.9-6.17 20.53-16.71 7.98-8.38-3.3 3.49-3.88 11.36 2.63 11.37m6.97 8.34c-4.8 2.69-19.19 10.87-5.63 5.33 4.85-4.22 6.83-26.44 14.05-12.72 0.22 0.35-0.6 9.13-0.72 5.34m-1.38 13.19c-5.35 1.31-9.89 9.3-4.12 0.74 3.3-9.48 15.43-18.56 17.94-3.64-0.23 2.35-10.89 4.35-8.66 2.81m6.03 11.79c-0.47 8.65-18.25 8.65-8.07-0.21 0.89-13.16 22.3-12.51 17.28-2.86-3.38 2.46-6.4 6.16-10.72 6.87m10.97 8.56c-2.1 9.72-26.93 3.23-11.4-2.07 6.92-7.28 25.55-8.14 21.21 5.97-4.27 2.19-9.23-2.64-13.41-0.12m8.47 7.44c-2.23 5.02-23.57 8.52-10.48 4.54 4.44-3.38 17.71-15.69 17.48-4.28-1.05 1.26-11.33 4.35-9.15 4.17m1 14.9c-6.52 3.69-20.65-10.38-6.14-6.74 5.9 1.97 22.06-8.7 14.25 1.71 0.8 3.51-11.82 7.44-5.06 6.37m0 13.29c-5.37 3.64-24.26-3.4-11.43-6.87 6.08 1.52 21.73 0.59 21.65 3.44-4.01 1.72-12.59-0.09-12.5 6.4m-3.53 12.29c-8.98 0.73-13.92-15.64-1.47-10.44 2.59 4.94 5.48 9.45 10.76 7.18 5.56 2.77 8.37 9.14 0.37 5.46-1.78 0.55-12.47-9.02-8.34-2.2"/>
        <path id="path28140" fill="#fefff6" d="m-376.84-703.73c-2.69 6.76-3.74 14.58-2.69 21.84 1.27-3.12 2.67-6.19 4.35-9.12 3.23 4.17-0.74 0.15 0.4-2.22 0.22-3.41-0.01-7.93-2.06-10.5zm14.19 3.69c-3.51 3.02-1.83 8.17-3.41 11.53-3.22 1.75 0.15 6.98 2.75 5.22-0.41-5.6 2.18-11.48 0.66-16.75zm13.75 5.09c-5.52 1.43-8.81 8.83-5.03 13.5 0.96 3.89-4.3 1.53-3.69 4.41 3.49 0.74 5.14 5.46 8.44 5.28 2.64-0.5-1.83-3.66-2.57-4.41-1.43-4.13 3.44-3.26 5.25-5.4-4.63-0.24-5.06-6.63-0.59-6.29 4.08-1.08 1.83-7.6-1.81-7.09zm-44.47 0.41c-4.32 3.79-3.26 12.62 1.78 15.34 3.08 1 5.16-3.09 1.72-4.44-4.44-1.54-0.34-5.37-0.63-7.65-0.72-1.03-1.31-3.26-2.87-3.25zm56.28 0.87c-4.66-0.64-3.79 1.25-0.5 3.5 2.1 1.36 4.09 5.45 4.47 6.69-0.38-3.01 1.72-11.28-3.97-10.19zm-74.75 1.31c0.55 5.9 4.83 10.5 7.28 15.6 2.13 2.24 3.49-2.85 2.53-5.03-2.23-4.39-4.57-9.14-9.81-10.57zm24.84 1.16c2.01 0.21-3.45-1.39 0 0zm69.38 2.97c-6.54 4.02-13.4 12.96-9.03 20.75 2.92 2.04 1.86 4.2 0 6.41-2.33 3.91-1.62 8.68-4.97 12-0.56 2.5 4.54 0.75 5.56 0.34 5.04 0.86 1.59 7.43-2 5.87-3.38 2.58-6.04 8.18-6.75 10.94 3.79 0.99-0.6-5.52 3.88-5.78 3.02-0.84 6.57 4 8.03-0.34 4.55-1.02 9.18-4.86 9.06-9.88 5.27-1.01 3.53-0.44 2.5-4.22 0.39-1.63-4.57 0.31-6 0.78-3.56 0.5-5.92 1.09-9.08-0.78-1.75-4.74 8.73-9.2 4.02-13.65-4.01-1.55-1.54-4.89 0.37-7.35 2.14-4.55 3-10.38 4.41-15.09zm-104 2.25c-1.28 4.34 0.95 8.95-0.69 13.09 2.63-0.99 6.73-2.48 8.41-1.12-0.72-2.79-0.98-5.7-4.28-5.88-2.01-1.41-2.23-4.49-3.44-6.09zm-11.91 6.47c-6.24 1.16-4.32 10.06-1 13.5 2.32 2.27 6.29 4.73 9.41 3.37 1.05-2.98-0.93-7.68-4.47-6.87-3.73-2.5 2.22-6.61 0.97-9.13-1.65-0.52-3.18-1.04-4.91-0.87zm66.91 0.84c-5.64 1.71-9.44 10.15-4.53 14.23-0.09 2.48 1.94 7.47 4.59 4.05 1.95-2.01 2.75-6.73-0.37-7.9-0.94-3.76 4.29-2.84 2.75-6.5-0.2-1.36-0.41-4.25-2.44-3.88zm-13.81 1.25c-3.77-0.47-4.88 5.29-4.32 8.53 1 3.68 2.32 7.32 3.94 10.69 1.57 0.89 4.18 2.51 2.47 4.97-0.91 2.16-0.72 7.85 2.94 5.47 3.06 0.49 2.53-1.89 0.25-3.1-2.3-2.57 0.84-6.03-2.02-7.97-2.18-2.37 2.71-6.45-1.98-7.49-4.32-2.16-1.46-7.26-0.56-9.94-2.58-1.05 2.22-2.36-0.72-1.16zm-21.66 2.75c1.33 2.43-0.55-3.25 0 0zm89.44 3.06c-1.19 2.28-3.95 6-2.1 8.22 2.09 0.6 5.36-0.76 6.1-2.18-2.48-1.12-3.59-3.95-3.56-6.54l-0.44 0.5zm-90.13 1.5c0.78 3.28 0.81 2.49 0 0zm108.69 1.91c-1.92 2.01-2.57 5.03-3.66 7.56 4.1 0.12 8.18-3.02 4.72-6.65-0.33-0.24-0.6-0.96-1.06-0.91zm-42.91 0.34c-3.93 1.36-10.08 5.31-8.46 10.13 1.57 0.77 3.37 5.52 3.62 1.97 1.09-3.63 3.21-6.3 3.94-9.81 0.28-0.65 1.12-1.83 0.9-2.29zm-64.9 0.5c0.64 1.58-0.04-0.52 0 0zm-47.6 1.91c-2.55 0.37-2.51 4.41 0.35 4.5 4.39 1.21 7.49 4.52 9.62 8.38 1.77 0.26 3 3.01 1.97 0.37-0.32 1.03 1.9-1.5 2.75-3.09 1.61-2.27 0.58-6.03-2.65-4.97-3.98 1.36-4.17-4.29-8.07-4.6-1.24-0.45-2.64-0.67-3.97-0.59zm11.94 13.25c1.47 3.54-0.04 0.19 0 0zm64.66-13c-2.87 1.06 0.07 1.67 0 0zm-27.44 0.69c1.97 3.84 7.93 8.28 3.72 12.25-1.29 4.14-0.67 8.35 1.44 11.44 1.91 2.59 5.1 4.21 4.78 7.84 2.18 6.43 7.39 11.8 12.22 15.87 1.61-7.09-5.2-11.71-10.22-15.25-1.8-2.16 1.73-4.73 3.69-3.12 0.73-3.94 2.04-8.81-1.82-11.75-3.42-2.71-3.09-6.26-2.59-10.13-0.13-2.66-1.41-6.98-4.63-4.43-2.8 0.61-5.52-1.11-7-3.41l0.41 0.69zm-13.03-0.41c-2.29 4.47 0.75 11.12 4.91 13.69 1.76 0.28 4.91 3.22 6.06 1.84-0.66-5.36-4.94-9.24-7.16-13.84-1.1-0.78-2.39-1.82-3.81-1.69zm-0.22 0.16c0.04-0.06-0.1-0.03 0 0zm62.59 2.81c-2.12 2.38-4.68 6.58-8.03 3.97-4.09 4.18-1.84 11.77-4.45 16.33-6.27 1.16-9.14 9.61-7.55 15.48-0.87 2.84 3.29 7.24 4.72 3.22-0.09-2.52 1.51-5.49 4.38-4.69 1.88-3.93-2.42-8.89 2.28-11.78 3.85-5.23 1.74-11.66 4.34-17.31 2.18-1.06 4.51-3.02 4.6-5.63l-0.29 0.41zm62.41 1.16c-1.11-2.04-1-1.71 0 0zm-133.12 3.18c-2.08 0.28-7.33 1.07-3 2.79 1.89 4.08 3.93-0.98 5.5-2.72-0.83-0.11-1.68-0.12-2.5-0.07zm-1.32 4.88c-0.9 2.96 1.52 4.52 0 0zm138.57-3.38c-3.62 0.62-6.51 4.14-8 6.88 4.34-0.45 8.31 1.21 12.28-1.44-0.51-2.14-1.41-5.71-4.28-5.44zm-174.44 1.47c1.78 6.15 7.73 12.75 14.47 11.85 0.36-3.18-5.42-5.73-1.57-7.5-4.68 3.26-8.16-4.75-12.9-4.35zm36 2.16c2.43 3.76 1.79 11.01 6.62 12.28 2.85-3.29 0.93-11.84-4.59-9.37-0.59-0.88-1.71-2.53-2.03-2.91zm80.81 1.37c-2.24 3.44-8.89 4.56-9.72 9.63-2.02 3.36 1.18 6.37 0.22 9.47-3.4 1.75-5.98 8.25-5.59 10.15 1.52-2.49 4.96-2.16 7.18-1-1.24-3.81-1.35-10.75 2.44-11.81-0.73-1.22 0.76-4.66 3.53-3.75 2.11 2.55 3.25-1.75 3.07-3.62-6.02-1.26-0.16-5.88 0.9-8.63-1.31 0.56-3.98-3.79-2.03-0.44zm-95.66-0.12c0.88 1.14-0.86-2.46 0 0zm152.66 3.62c1.18 1.96-1-3.5 0 0zm-86.44 0.47c0.48-1.79-1.27-1.76 0 0zm86.22-0.68c0.49 0.85-0.18-1.59 0 0zm-87.44 0.71c1.85 1.09-2.53-2.7 0 0zm17-0.62c1.48 0.6 0.32-0.49 0 0zm0.69 0.06c-5.23 0.12 3.42 1.46 0 0zm56.75 2.85c-5.54 3.36-9.26 9.32-13.87 13.78 4-0.51 8.53-2.31 10.65-5.97 0.16 0.85 0.14-2.54 2.07-3.66 0.15-0.75 3.39-4.59 1.15-4.15zm-109.06 0.43c-0.06 1.81 3.16 3.71 4.25 5.32 3.3-3.21 1.41-3.27-2.09-4.29-0.76-0.22-1.5-0.75-2.16-1.03zm4.03 5.13c-1.12 1.75 1.65 4.14 0.25 0.31l-0.25-0.31zm125.09-4.53c-5.11 0.19-8.54 4.74-9.18 9.47-2.23 2.41-5.2 5.57-6.41 8.09 1 3.06 4.02 3.28 6.42 3.61 3.41 2.38 9.72 3.51 13.89 0.55 3.51-1.07 7.45 2.21 10.5 0.93 1.95-5.32-4.03-8.47-8.53-7.22-4.91 0.01-8.22 3.99-12.44 5.54-3.04-2.08-0.45-5.48-1.93-8.29 1.23-2.32 3.37-1.83 4.09-2.84 3.17 3.62 0.22 0.43 0.94-0.31 2.85-1.98 7.85-3.84 8.12-7.63-0.81-1.98-3.66-1.99-5.47-1.9zm-120.06 1.62c0.12 0.05 2.93-1.71 0 0zm-28.72 2.97c-1.56-0.03-5.67 3.43-4.15 3.53 2.78 0.8 6.49 3.68 9.18 2.19 1.93-1.7-2.2-6.52-5.03-5.72zm31.85 0.25c-5.58 1.73 2.34 0.71 0 0zm0.03 0.72c0.99-0.34 1.34-1.55 0 0zm1.31 1.03c-4.71-1.4 0.62 2.75 0 0zm-5.22 0.34c-3.89-0.06 1.57 3.31 1.31 5.38 1.68 4.59-3.98 4.18-6.65 2.56-0.85-2.24-0.87 1.36-1.25 3.03 0.86 3.93-4.5 3.11-6 1.6 2.23 2.39 5.5 5.31 8.5 2.68 5.66 3.62 11.36 8.47 17.12 11.32 0.8 0.56 1.48 1.08 2.35 3.34 1.57 1.93 4.89 4.75 6.56 4.84 0.84-3.65-1.97-7.29-5.34-7.87-3.18 1.34-3.88-1.43-4.63-4.5-1.03-2.9-4.74-3.48-5-6.5-3.04-2.33-5.44-5.36-2.56-8.41 0.68-3.54-0.86-7.81-4.41-7.47zm97.81 0.75c0.23-0.18-0.35-0.38 0 0zm-119.18 0.94c0.45 1.05 2.93-0.71 0 0zm-0.16 0.06c0.27-0.13-0.42-0.07 0 0zm77.31 1.1c-1.17 1.56 3.04-2.13 0 0zm-105.68 1.19c-2.79 0.68-2.48 4.61 0.71 4.31 3.59 0.68 6.58 2.55 3.1-1.75-0.64-1.45-2.15-2.78-3.81-2.56zm126.43 1.56c-4.04-0.23 1.24 2.97-0.56 5.28 1.62-0.61 7.41-1.21 4.59-4.19-1.04-1-2.63-1.31-4.03-1.09zm-130.72 0.15c2.11 0.62 1.45-0.13 0 0zm70.57 1.63c1.42-1.35 0.88-1.51 0 0zm-22.44-0.56c0.1-0.07-0.1-0.35 0 0zm-32.47 2.22c-3.94 1.23-2.01 1.56 1.16 3.25 3.58 1.6 6.27 8.78 0.72 8.62-3.08 1.02-6 2.41-8.63-0.87-0.05-3.85-4.76-3.31-7.03-2-0.36-4.55 0.42 0.81-1.63 2.03-2.42 4.7 4.79 7.82 8.47 8.22 3.48-0.59 6.97 1.16 5.5 4.93 4.07 4.53 11.62 3.08 17.13 4.16 2.97-0.97 8.24 4.63 9.65 0.09 0.44-2.68-1.66-7.76 2.94-7.28 3.16 1.91 3.84-2.98 2.88-4.34-3.1-1.16-5.8 1.04-7.01 3.36-2.15 1.27-4.82 1.11-7.12 2.36-2.5-1.63-3.86-3.89-6.22-1.41-3.26 0.48-11.04 1.6-9.25-3.69 1.4-0.94 7.92-1.61 4.82-4.31-2.65-2.71 1.32-4.62 3.31-5.75-3.58-1.68-4.56-8.29-9.69-7.37zm-32.25 1.15c-2.53 2.09-1.7 5.95 1.78 6.06 3.22 0.99 9.26 0.11 10.56-1.46-4.17-1.7-8.51-1.96-12.21-4.66h-0.07l-0.06 0.06zm136.38 3.13c0.83 5.51-4.86 8.8-9.75 7.53-3.5-0.76-4.93 1.17-7 3.25-3.53 0.99 1.57 2.52 0.78 3.59 1.25-1.04 0.67-4.28 4.72-4.25 2.79-1.53 5.76 0.86 8.21 0.16 2.25-1.99 2.36-5.46 3.19-8.03 2.43 2.54-1.36-1.8-0.15-2.25zm0.96 0.9c2.03 0.26 1.64-0.89 0 0zm0.88 0.07c-1.72-0.36-1.05 0.36 0 0zm4.66 0.21c-1.86 1.48 3.26-1.15 0 0zm-100.35 1.54c1.27-0.14-3.37-0.06 0 0zm79.56 0.93c0.05 2.91 1.04-2.98 0 0zm21.57 0.82c-0.42-1.97-0.7-1.58 0 0zm-6.63-1.1c4.47 2.21-0.8-1.83 0 0zm29.47 0c0.11 0.03-0.08-0.24 0 0zm-149.22 1.66c-1.17-1.85-1.97-1.15 0 0zm29.81 0c6.59 3.21-1.67-1.06 0 0zm6.63 0.37c-1.19 2.21-0.11 0.7 0 0zm-0.66 1.38c0.12-2.69-3.95 1.5 1.53 1.62 4.2 1.06-0.26-0.95-1.53-1.62zm104.88-1.28c-5.12 0.95-7.58 5.55-11.06 8.34-1.98 0.58-4.08 2.47-0.85 2.91 3.8 1.48 7.24-1.22 9.31-4.16 3.55 2.82 3.27 0.73 6.85-1.25 4.34-2.73-4.49-1.58-3.91-5.28-0.49-0.14 0.8-1.24-0.34-0.56zm-38.44 0.53c0.77-0.26-0.33-0.56 0 0zm0 0.15c-0.66 2.16 1.14-1.39 0 0zm-0.09 0.69c1.95 2.85 0.35-2.13 0 0zm2.53-0.34c0.61 1.21-0.45-2 0 0zm86.03 2c0.99-1.64 0.43 0.3 0.9 0.08-0.63 0.29 1.87 0.27-0.93 0.48-2.1-0.5-3.86 2.22-4.91 0.88-0.34 3.61 2.98 0.29 4.94-1.44zm-0.06 0.56c-0.04-0.15-0.45-0.02 0 0zm-167.1-0.53c-1.19 1.23 3.14-1.37 0 0zm-0.09 0.03c-1.12 0.1-0.12 0.24 0 0zm66.56 0.06c-5.03 3.34-5.56 11.64-3.09 17.03-0.41 3.13-1.55 5.54-4.81 6.38-1.9 2.49-5.85 0.25-2.88 3.75 1.7 2.9 0.36 7.46-1.37 8.69 1.42 3.1 5.41 1.91 7.28 3.62 0.46-2.79 3.97-4.84 6-6.97 3.02 0.94 6.02 2.93 9.31 1.07 2 1.92 1.04 3.47 0.19 4.93 0.58 3.53 5.84 3.12 7.5 0.69 3.83-1.11 4.64 6.09 8.74 3.64 5 1.3 10.24 3.22 14.98 5.17 2.39 3.19-0.95 5.46 0.06 5.08-3.26 1.16 0.04 5.9 1.65 7.02 1.73 2.73 5.36 4.63 8.57 5.09-0.01-5.27-4.62-9.15-9-11.28-2.17-5.25 5.09-3.6 7.59-5.72 5.37-0.37 10.61-2.68 15.63 0.19 2.87 0.03 4.38 1.9 6.12 3.25 2.03 0.33 4.51-0.34 6-1.28-5.57-1.69-11.32-4.39-16.69-4.97-6.22-1.68-13.95-0.46-19.47-5-6.7-0.43-13.72-5.7-20.59-2.91-3.23 3.33-4.7-1.27-6.69-3.15-2.7-2.5-6.18-4.51-9.97-4.29-3.56 1.17-3.88-4.88-0.38-3.85 3.52-1.25 5.33-5.03 9.35-5.9 3.3-3.13 7.29-1.54 11.28-1.96 2.85 3.18 0.1 4.57-2.65 5.31-3.31 1.09-2.01 4.97 0.81 5.75 3.88 2.03 9.5 1.18 11.28-2.53 2.33 1.08 6.55-2.79 2.56-3.75-3.22-2.72-10.75 0.82-9.56-5.35 1.53-0.67 5.45-1.57 2.9-3.37-2.66-2.41 4.59-5.23 2.66-5.72-5.84 0.13-10.61 3.54-14.53 7.37-6.28 2.67-14.76 8.35-20.9 2.38 2.27-4.65-2.76-5.9-1-9.94 3.76-1.14 6.71-3.48 9.22-5.69-0.9-3.42-2.13-0.79-4.82-2.18-0.34-0.31-0.77-0.74-1.28-0.6zm41.41 53.35c-0.07-0.04-0.1 0.19 0 0zm59.59-52.38c1.31-0.78 3.53-1.45 0 0zm-216.03-0.53c-5.36 1.33-3.6 9.16-0.12 12 1.44 3.38 6.44 2.4 5.62 6.94-1.33 1.59-5.77 0.71-5.91 2.84 3.02 3.69 8.69 4.42 12.72 2.06 2.96 2.52 7.43-1.09 7.28-3.87-3.74 2.53-7.29 0.1-10.5-2.5-1.5-4.51 3.35-6.28 5.75-9.19-2.68-1.44-5.98-3.24-5.18-6.5-3.79 0.66-6.25-1.4-9.66-1.78zm216.25 0.69c0.48 0.59 1.1-0.89 0 0zm-30.69 0.44c-2.83 0.06-6.58 0.95-8.53 2.43 3.52 0.12 6.87 2.24 9.75 3.5 2.11-1.73 4.16-3.59 6.5-5.03-2.51-0.74-5.08-1.03-7.72-0.9zm31.44 0.18c1.23 0 0.81 1.55-0.19 2.22-0.69-1.46-1.47-1.64 0.19-2.22zm-144 0.88c-2.15 0.71 3.3-0.5 0 0zm143.06 1.69c-1.17-2.42-0.93-2.55 0 0zm-1.75 0.71c-1.21-2.67-0.84-2.42 0 0zm-4.72-0.37c6.56-2.63-1.13 5.31 0.08 3.05 1.93 3.65-3.59-3.45-1.34-1.2 0.87-3.62-1.55-2.16-1.22-1.51-2.57 1.86-5.03 4.46-9.27 5.5-4.12-2.9 5.67-2.73 7.26-4.34 1.5-0.5 3-1 4.49-1.5zm-0.68 0.28c2.13-0.08-1.47-2.74 0 0zm0.31 2.03c0.03-0.16-0.16 0.03 0 0zm-76.91-0.81c2.32 0.4 4.34-0.62 0 0zm76.75 0.72c0.38 0.17-0.24-0.76 0 0zm-184.09 4.72c-3.08-0.39-4.01 2.9-1.84 4.72 2.53 3.05 6.63 5.61 10.71 4.56-4.2-0.88-4.82-8.48-8.87-9.28zm61.91 0.84c-3.1 0.27 0.43 0.99 0 0zm78.06 1c-3.08 0.83-6.44 2.75-8.28 5.38 1.13 3.5 6.73 2.62 9.06 0.43 3.14-0.28 6.62-1.93 9.5-0.9-1.38-1.52 3.97 1.51 5.37 2.12 3.78 5.2 5.87-2.43 9.56-0.61 1.64 1.36 2.84 4.44 1.51 6.46-3.09 2.77-6.4 5.08-10.63 4.59-2.2 1.17 1.6 4.31 2.78 5.25 2.14 1.05 3.99-2.47 7.28-1.75 4.64-0.42 9.05-1.54 13.25 0.84 3.23 1.27 6.12 0.36 8.69-1.78 0.82-0.92-7.13-0.48-9.65-1.15-4.67 0.95-8.15-7.32-2.66-8.29 1.93-1.7 2.98-4.72 6.25-3.25 3.43-0.18 7.5-0.39 9.31-3.53 3.15-4.83-3.77-0.12-6-0.25-4.5 2.01-8.55-0.34-12.44-2.15-7.28-1.68-15.02-0.05-21.59 3.28-3.73-0.77-6.58-5.42-11.31-4.69zm-155.53 1.28c0.72 0.06-0.39-0.88 0 0zm-0.03 0.69c1.07-0.82-0.8-0.86 0 0zm72.65 4.06c-3 1.6-6.27 1.97-9.62 0.5-0.48 5.04-8.82-0.53-8.94 5.16-0.65 1.52-5.21 0.27-1.91 1.37 1.92-0.25 5.59 2.69 8.85 1.1 3.85-0.63 7.6-4.22 10.87-0.69 1.69 0.71 8.02 3.73 5.63 0.41-0.85-3.47 0.74-7.15-3.91-7.79-0.33 0.1-0.65-0.19-0.97-0.06zm-32.56 2.35c-4.32 2.73-7.12 8.14-12.97 6.5-2.26 0.56-6.05-1.94-6.44 1.4-2.46 2.33-8.17-2.41-8.12 2.56-1.91 1.99-2.79 1.32-5.1 0.16-2.42 0.58-5.51 0.73-6.25-2.03-3.12-0.07-9.22 1.22-7.28 5.66 1.84 4.46 7.09 3.34 10.75 3.18 2.74 1.13 5.97-1.17 5.16-4.15 1.32-1.97 2.28-2.08 4.91-1.25 6.96 0.96 13.07-2.82 18.75-5.88 3.47-0.75 3.99 4.93 7.71 4.75 2.61 0.65 2.69 1.09 3.66 0.28 1.7 0.19 5.65-1.78 5.41-3.65-4.81 1.9-8.94-4.89-10.19-7.53zm51.41 0.9c1.67 1.59-0.14-0.36 0 0zm2 2.66c1.04 0.91-0.56-1.1 0 0zm-41.66 0.84c-0.49 0.33-1.49-1.3 0 0zm57.56 0.47c-3.83-1 1.84 3.58 0 0zm1.6 0.91c-1.52 4.36 1.81 1.04 0 0zm47.06-0.16c-2.9 1-6.79 0.87-9.16 2.88 1.12 2.75 4.18 6.32 6.85 4.18 2.29-1.67 7.37-1.7 4.5-4.84 1.66-1.88-0.76-2.41-2.19-2.22zm-115.31 6.78c0.63 0.13 0.16-1.42 0 0zm38.12 0.94c-4.21 2.65-0.97 10.64-6.56 11.84-2.03 1.96-1.74 5.37-2.91 7.5 6.37-3.45 11.3-10.15 12.75-17.03-0.92-0.97-1.86-2.24-3.28-2.31zm10.91 0.53c0.1 0.55 1.84-0.09 0 0zm60.87 1.09c0.85-0.52 0.02-2.16 0 0zm-60-0.84c1.2 0.55 0.27-0.32 0 0zm-20.84 0.13c-2.53 1.21-4.12 4.15-6.97 1.03-0.26-1.64-4.05 0.92-3.72 2.78-0.48 2.47 3.7 3.29 1.22 5.53 0.15 0.84 2.81-2.41 5.31-0.84 4.45 1.18 7.92-6.47 4.31-8.54l-0.15 0.04zm-8.94 10.03c2.16 1.01 0.99-3.29 0 0zm89.75-9.19c-0.56 1.46 1.29-1.58 0 0zm-116.34 0.41c-2.93-0.08-2.93 3.61-5.63 3.9-2.06 3.31-6.75 5.09-7.4 0.03-2.43-0.76-4.12 4.17-5.72 5.63-2.72 1.06-6.72-3.62-9.32-0.03-0.65 3.42-4.33 2.21-5.65 4.47-3.36 3.49-2.57 4.3 2.06 3.03 6.14-0.78 9.18-7.72 16-5.72 3.42 0.47 8.33 2.57 9.75-2.13 2.39-2.05 5.13 0.78 6.47 2.22 1.3 3.55-4.83 5.13-5.2 5.56 1.2 2.4-4.83 4.6-7.68 5.47-0.47 2 4.69 2.66 6.72 2.1 5.88-0.48 14.81-5.33 12.19-12.28-0.97-4.95 6.21-5.29 8.47-8.88 1.51-2.8-2.18 1.25-3.88-0.41-3.63-1.21-7.27-3.03-11.18-2.96zm70 3.06c-1.3 1.37-4.19 1.95-5.16 0.15-0.79 3.48 2.25 7.01 2.75 7.66-1.59 3.14 1.9-1.5 3.59 4.25 1.28 3.88 6.46 2.55 6.66 6.69 0.61 1.66 4.77 3.88 2.28 0.44-0.45-2.84-1.44-5.06-3.96-6.23-1.53-3.84-1.56-11.19-6.16-12.96zm85.78 2.25c-2.88 1.03 0.67 5.75 2.5 6.69 2.09 1.83 1.61-1.16 3.4-1.57-2.07-2.1-2.2-5.67-5.9-5.12zm-98 2c-0.84 3.12-5.32 3.58-3.06 7.12 0.35 3.34-0.29 6.81 0.37 10.07 5.01-3.76 5.46-12.56 2.69-17.19zm-31.63 2.37c0.35 0-0.12-0.34 0 0zm-1.25 0.03c-1.63-0.49-4.52 2.33-2.87 2.66 0.43-0.58 4.46-2.82 2.87-2.66zm62.85 0.13c1.31 3.65 3.48 9.1 8.31 7.78 3.19 1.46 0.21 3.74-0.19 5.34 2.04 2.21 5.17 3.42 4.56 7.04 0.7 5.59 6.43 10.2 11.91 9.75 2.11-2.7-0.63-8.52-3.41-11.41-5.14-3.54-6.65-10.31-12.43-13.44-2.66-1.88-6.34-3.66-8.75-5.06zm82.87 3.91c-3.49 0.1 5.25 3.14 1.44 0.78-0.47-0.2-0.91-0.91-1.44-0.78zm-158 0.43c1.01 0.87-0.48-0.79 0 0zm0.53 1.32c-0.01-1.76-1.16-1.66 0 0zm7.19-0.19c-0.34 0.58 2.67-2.01 0 0zm-25.09 0.56c2.07 2.62-0.49-1.84 0 0zm18.4-0.03c-4.52 3.45 5.46-0.29 0.32-0.5l-0.32 0.5zm79.63 4.5c-0.4 2.83 1.57-2.88 0 0zm42.47-0.41c-3.52 0.63-6.27 2.77-10.03 1.82-0.55 2.13 4.03 5.02 6.65 4.68 2.77 1.6 5.88 4.06 9.66 2.82 2.43-0.13 5.72-0.96 3.34-3.79-1.77-3.46-5.72-5.8-9.62-5.53zm-92.63 3.78c-2.24 0.28-6.39 1.26-7.03 3.13 4.31 2.88-1.09 6.36-2.66 8.56-1.45 4.06-7.45 1.71-9.4 5.81-4.32 0.24-4.28-5.38-2.1-7.4 2.68-0.9 5.17-4.31 6.16-5.81-3.08 2.39-6.83-4.4-5.62 2.75 0.73 3.63-5.32 2.49-3.44 6.62-0.41 2.48 4.12 4.54 1.37 5.88-1.47 2.3 6.55-0.1 2.47 5.9-4.01 1.4 0.18 9.54-5.06 9.28-2.81 0.03-6.07 0.97-7.59 3.5 2.78-3.59 6.42 1.7 3.25 3.35-1.25 1.91-2.28 6.59-1.66 7.53 3.91-1.79 9.54-6.09 6.36-10.77 0.16-4.7 6.78-3.53 7.64-8.2 1.87-4.15 4.24-9.04 9.12-10.13 4.28-4.71 7.13-10.8 8.79-17.06 1.14-1.43 2.66-3.69-0.6-2.94zm24.35 0.91c0.56 2.74-3.45 11.17-2.27 8.57 2.6-0.54 3.81 5.37 5.95 5.43 1.65-5.14-0.39-10.81-3.59-14.84l-0.09 0.84zm-86.07-0.31c-3.17 0.14-7.21 3.43-7.25 5.31 2.81-0.86 6.26-3.55 7.25-5.31zm30.25 0.15c-5.69 1.22-10.17 5.86-13.78 10.32-4.9-3.84-11.03 1.11-16.56 2.15-1.75 4.58-8.95 3.95-11.13 6.97 4.68 6.16 13.57 0.6 17.79-3.28 2.9-4.89 4.95-1.68 4.74-3.18-2.8-6.48 6.06 2.78 1.63-0.63-2.1-1.09-1.87 1.09 0.47 1.81 7.53-0.65 12.86-8.04 18.06-12.84 0.13-0.99-0.15-1.6-1.22-1.32zm-17.47 12.19c0.27 0.33 0.15-0.1 0 0zm61.47-10.31c0.07-0.79-0.04-3.14 0 0zm-87 1.41c-3.54 3.67 2.48 2.93 4.78 2.12-2.2 1.1-4.39-3.03-4.78-2.12zm86.57 0.15c-2.01 4.83-1.04 10.18-0.85 15.1 1.84 2.62 2.53-3.41 2.91-4.6 0.63-3.82 0.36-7.9-1.81-11.25l-0.25 0.75zm-57.19 3.22c3.51 2.68-1.49-4.2 0 0zm125.81 0.44c-3.51 1.06-3.5 7.53 1.09 6.22 6.12-1.62 5.67 7.02 10.38 9.09 1.3 1.78 6.15-0.26 3.28-2.25-4.36-4.58-10.59-7.46-13.78-12.87-0.3-0.22-0.59-0.28-0.97-0.19zm-71.53 0.28c1.41-0.11-1.62-0.39 0 0zm36.31 0.03c-2.82 1.28 1.01-0.23 0.69 0.25-0.61 0.01 0.58-0.82-0.69-0.25zm0.75 0.16c0.54-0.21-0.2-0.32 0 0zm-57.19 1.93c3.79 2.41-2.27-4.39 0 0zm58.97 0c0.36 3.07 4.27 6.57 5.38 9.54 4.3-2.28-0.77-7.32-3.19-9-0.79-0.45-4.39-3.5-2.19-0.54zm-40.34 1.29c2.11 0.54 1.47-0.79 0 0zm52.59 2.06c-0.71-0.59-3.67 3.34 0 0zm-34.09 2.97c1.61-0.94 1.29-2.14 0 0zm2.28-0.1c0.01 0.45 0.21-0.46 0 0zm7.47 0.35c0.23 3.35-2.29 8.42 0.72 9.43 0.84 2.49-2.36 5.41 1.37 6.19 1.5 1.21 4.28 1.82 3.69-1-0.21-5.46-2.38-10.74-5.69-15.06l-0.09 0.44zm-7.59-0.16c-0.07 0.85 0.27-0.36 0 0zm0.03 0.28c-0.14-1.1-0.62 1.81 0 0zm46.47 0.85c2.05 2.23-3.25 4.14 0.46 5.03 5.35 0.79 6.26 8.81 6.75 5.78 2.89 0.62 5.86 1.36 8.79 0.69-4.69-4.75-10.15-9-16.19-11.82l0.19 0.32zm6.09 12.43c1.39-2.63-2.34 1.66 0 0zm-52.91-12.59c-0.12 0.77 0.42-0.46 0 0zm-1.37 1.12c-3.73 4-4.6 10.22-1.47 14.75 0.78 2.49 3.33 5.44 5.78 5.41 2.41-7.08-4.14-13.26-4.22-20.12 0.02-0.08-0.08-0.09-0.09-0.04zm-76.88 0.16c-2.54-0.09-4.4 5.44-0.72 4.06 1.89-0.39 6.08 0.66 6.6-1.65-1.29-1.74-3.75-2.59-5.88-2.41zm21.72 0.72c-0.77 3.84-3.28 8.18-7.53 7.31-5.13 1.2-9.67 5.76-9.09 11.03-1.22 0.89-4.73-1.82-3.69 0.03-2.28 2.31-1.89 8.67 2.56 6.69 4.18-4.05 3.56-12.09 9.38-15.4 2.14-1.8 5.95 1.04 8.34-2.04 1.85-2.03 6.78-6.68 1.55-7.39-0.22 0.43-1.76-1.52-1.52-0.23zm-20.97 24.87c-0.1 0.04 0.05 0.06 0 0zm51.82-23.5c-2.56 3.03-5.48 7.44-9.94 7-1 2.5 2.51 5 2.62 7.75 1.89-5.39 7.15-9.56 7.75-15.28l-0.43 0.53zm49.5-0.21c0.24 0.54 0.21-1.03 0 0zm-0.57 3.15c-1.28 0.69 2.99-0.55 0 0zm-39.56 1.72c-3.14 1.6-0.96 6.14-2.84 8.06 1.52 2.39 2.79 7.55-0.97 8.25 1.28 4.25 2.51 9.02 2 13.28 4.31 3.42 1.11 10.52 2.4 14.69 7.04-6.29 4.6-17.74-0.45-24.46 1.67-5.95-0.88-12.87 0.61-19.07-0.01-0.44-0.14-1.08-0.75-0.75zm-66.34 6.34c-0.4 0.43 0.34 0.21 0 0zm122.62 0.79c-0.43 3.65-1.42 8.07 2.47 10.4 1.71 1.65 6.67 2.98 5.47-1.06-0.79-4.21-4.55-7.4-8-9.88l0.06 0.54zm-45.9 0c-2.35 2.56 5.24-1.23 0 0zm43.93 1.9c3.34 0.9-2.15-1.68 0 0zm-112.22 0.22c2.73 0.01-3.06-1.13 0 0zm112.94 0.63c3.59 0.38-3.12-2.07 0 0zm0.35 0.4c1.8 0.76-1.03-1.09 0 0zm-15.63 1.22c0.5 2.37 1.35 4.99 3.13 6.69-1.27-1.92-2.78-5.4-3.13-6.69zm-24.66-0.03c-1.04 0.82 1.41-0.44 0 0zm-1.21 0.16c0.88 0.72 1.88-0.96 0 0zm-72.1 0.09c-1.86 1.28 3.52-1.12 0 0zm32.75 3.25c-2.8 1.45-5.4 5.03-5.47 8 2.44-0.97 5.21 3.5 4.94-0.75-0.17-2.48 0.86-4.99 0.53-7.25zm8.35 1.53c-0.25-1.23-2.11-2.41 0 0zm46.59-0.5c-4.67 0.87-4 6.95-0.25 8.38 3.26 2.79 3.61 8.51 5.87 11.03 6.23-1.98 3.69-10.52-0.75-12.91-2.94-1.07-4.1-3.25-4.12-6.19-0.11-0.32-0.44-0.39-0.75-0.31zm-43.38 0.31c-4.68-0.14-1.63 6.59 1.69 7.19 2.75 0.78-0.42-5.3-0.34-7.19-0.44-0.04-0.9-0.05-1.35 0zm57.6 3.47c0.87 1.6 1.65 5.78 3.84 5.56-0.89-1.39-4.09-6.61-3.84-5.56zm-28.25 3.35c0.29 1.68 1.95 2.91 0.25 0.37l-0.25-0.47v0.1zm1 1.96c-0.11 0.04 0.04 0.06 0 0zm-26.38 0.29c0.42 0.21 0.06-0.99 0 0zm-0.22 0.56c0.47 1.47 0.49-1.85 0 0zm0.32 0.75c0.46-0.5-0.67-0.45 0 0zm28.5 0.97c-1.04 1.62 2.44-1.1 0 0zm-29.53 0c-5.01 0.04-2.54 4.85-2.91 7.81 2.81-1.28 3.12-5.97 2.91-7.81zm26.65 1.93c-5.54-2.27-5.61 7.76-1.75 8.47 3.75-0.94 6.91-6.85 2.53-8.87-0.83-0.73-1.19-1.09-0.78 0.4zm-44.59-0.43c-1.24 0.23-4.59 3.02-2.19 2.59 0.81-0.35 2.57-2.65 2.19-2.59z"/>
      </g>
      <path id="path28142" fill="url(#radialGradient19465)" d="m442.8 342.53c-1.16 0.86 3.18 42.97 3.87 43.92 0.68 0.93 3.9 0.67 5.2 0.23 1.2-0.41 23.2-39.17 22.6-40.48-3.55-5.25-13.33-5.11-15.9-5.52-5.16-0.2-11.13-0.71-15.77 1.85zm-27.79 17.16c0.96 1.61 27.34 27.48 27.85 27.95 0.47 0.44 2.44 0.04 2.83-1.03 0.35-0.99-5.37-42.97-5.41-43.36-9.24-0.2-22.27 6.74-25.27 16.44zm60.65-12.26c-0.85-0.2-18.12 31.24-22.06 40.11-0.22 1.83 1.25 2.51 2.29 2.1 0.93-0.37 35.62-27.47 35.79-28-0.33-5.75-11.12-14.52-16.02-14.21zm-61.54 13.28c-9.77 5.37-17.15 26.03-14.63 36.83 0.94 1.5 38.75-4.68 40.06-5.26 1.27-0.57 2.98-3.02 2.64-4.22-0.35-1.23-27.63-27.16-28.07-27.35zm79.29 1.99c-1.09-0.94-37.06 27.47-37.2 27.83-0.13 0.35 0.03 1.24 0.89 1.55 1.26 0.44 43.44-12.53 43.58-12.9 2.13-5.41-3.21-16.28-7.27-16.48zm6.76 18.21c-0.51-0.27-42.63 11.35-43.59 12.1-0.53 0.42-1.12 2.49-0.63 3.4 0.55 1.01 37.54 20.24 38.07 19.92 4.8-2.8 8.27-9.83 8.61-12.42 0.32-2.52 0.49-5.1 0.49-7.72-0.4-4.54 0.55-12.05-2.95-15.28zm-101.07 19.15c-0.23 9.63 3.49 22.42 11.15 28.76 0.48-0.25 29.02-27.13 31.66-31.05 0.71-1.05-1.86-4.02-2.32-4.06-0.45-0.05-40.18 4.77-40.49 6.35zm56.63-2.17c-0.14 0-0.3 0.01-0.47 0.02-1.43 0.33-3.43 0.6-3.67 2.07-0.25 1.55 19.5 41.07 20.55 40.89 9.25-2.98 22.01-13.05 20.72-23.79-0.13-0.4-30.03-15.56-35.88-18.97-0.06 0.09-0.26-0.21-1.25-0.22zm-12.4 0.37c-0.76 0.05-31.34 31.35-31.59 31.98 2.59 8.22 16.39 18 25.58 16.25 0.31-2.29 8.47-46.39 7.64-47.15-0.79-0.73-0.87-1.12-1.63-1.08zm7.08 1.57c-0.8-0.67-2.72-1.01-3.59 0.01-0.9 1.06-8.49 46.74-7.18 47.55 8.29 4.16 23.95 2.02 30.22-5.23-0.16 0.06-18.68-41.69-19.45-42.33z"/>
    </g>
  </g>
  <metadata>
    <rdf:RDF>
      <cc:Work>
        <dc:format>image/svg+xml</dc:format>
        <dc:type rdf:resource="http://purl.org/dc/dcmitype/StillImage"/>
        <cc:license rdf:resource="http://creativecommons.org/licenses/publicdomain/"/>
        <dc:publisher>
          <cc:Agent rdf:about="http://openclipart.org/">
            <dc:title>Openclipart</dc:title>
          </cc:Agent>
        </dc:publisher>
        <dc:title>lemon</dc:title>
        <dc:date>2007-07-19T20:25:29</dc:date>
        <dc:description>clip art, clipart, cooking, cooking, food, food, fruit, fruit, image, lemon, lemon, media, photorealistic, png, public domain, svg, </dc:description>
        <dc:source>http://openclipart.org/detail/4495/lemon-by-pipo-4495</dc:source>
        <dc:creator>
          <cc:Agent>
            <dc:title>pipo</dc:title>
          </cc:Agent>
        </dc:creator>
        <dc:subject>
          <rdf:Bag>
            <rdf:li>clip art</rdf:li>
            <rdf:li>clipart</rdf:li>
            <rdf:li>cooking</rdf:li>
            <rdf:li>food</rdf:li>
            <rdf:li>fruit</rdf:li>
            <rdf:li>image</rdf:li>
            <rdf:li>lemon</rdf:li>
            <rdf:li>media</rdf:li>
            <rdf:li>photorealistic</rdf:li>
            <rdf:li>png</rdf:li>
            <rdf:li>public domain</rdf:li>
            <rdf:li>svg</rdf:li>
          </rdf:Bag>
        </dc:subject>
      </cc:Work>
      <cc:License rdf:about="http://creativecommons.org/licenses/publicdomain/">
        <cc:permits rdf:resource="http://creativecommons.org/ns#Reproduction"/>
        <cc:permits rdf:resource="http://creativecommons.org/ns#Distribution"/>
        <cc:permits rdf:resource="http://creativecommons.org/ns#DerivativeWorks"/>
      </cc:License>
    </rdf:RDF>
  </metadata>
</svg>
